<?xml version="1.0" encoding="UTF-8"?>
<svg width="279.89" height="242.1" enable-background="new 0 0 279.893 242.095" viewBox="0 0 279.893 242.095" xmlns="http://www.w3.org/2000/svg">
 <g fill-rule="evenodd">
  <path d="m124.31,241.79c67.959,0 123.81-18.618 123.81-41.334v-22.342c-5.119,29.977-85.833,40.962-123.26,40.03-53.245.27-120.46-13.69-124.37-39.66l-.186,21.97c.001,22.71 55.95,41.33 124.01,41.33z" fill="#ffcc23" stroke="#000" stroke-linecap="round" stroke-linejoin="round" stroke-miterlimit="2.4142" stroke-width=".6108"/>
  <path d="m124.4 218.14c67.866 0 123.82-18.618 123.82-41.334 0-22.714-55.949-41.239-123.82-41.239-68.051 0-124 18.524-124 41.239-3e-3 22.72 55.948 41.33 124 41.33z" fill="#ffd93c" stroke="#000" stroke-linecap="round" stroke-linejoin="round" stroke-miterlimit="2.4142" stroke-width=".6108"/>
  <path d="m124.31 215.63c64.515 0 117.67-18.062 117.67-40.03 0-22.064-53.156-40.03-117.67-40.03-64.701 0-117.76 17.966-117.76 40.03-8e-3 21.97 53.055 40.03 117.76 40.03z" fill="#ffbf00"/>
  <path d="m124.31 213.77c61.256 0 111.71-17.596 111.71-39.1s-50.457-39.099-111.71-39.099c-61.442 0-111.9 17.594-111.9 39.099s50.454 39.1 111.9 39.1z" fill="#ffcc23"/>
  <path d="m148.14,207.16c68.052,0 124-18.618 124-41.334v-22.342c-5.213,29.977-85.833,40.868-123.54,40.03-53.064.28-120.18-13.685-124.19-39.658l-.092,21.97c.006,22.71 55.861,41.33 123.82,41.33z" fill="#ffcc23" stroke="#000" stroke-linecap="round" stroke-linejoin="round" stroke-miterlimit="2.4142" stroke-width=".6108"/>
  <path d="m148.14 183.42c68.052 0 123.91-18.62 123.91-41.24 0-22.528-55.857-41.24-123.91-41.24-67.958 0-123.91 18.712-123.91 41.24 0 22.62 55.949 41.24 123.91 41.24z" fill="#ffd93c" stroke="#000" stroke-linecap="round" stroke-linejoin="round" stroke-miterlimit="2.4142" stroke-width=".6108"/>
  <path d="m148.14 181c64.607 0 117.76-18.06 117.76-40.03 0-21.876-53.157-40.03-117.76-40.03-64.514 0-117.67 18.154-117.67 40.03-3e-3 21.97 53.154 40.03 117.67 40.03z" fill="#ffbf00"/>
  <path d="m148.14 179.14c61.443 0 111.81-17.688 111.81-39.098s-50.363-39.1-111.81-39.1c-61.348 0-111.8 17.688-111.8 39.1-8e-3 21.41 50.449 39.1 111.8 39.1z" fill="#ffcc23"/>
  <path d="m136.69,169.83c67.959,0 123.82-18.617 123.82-41.239v-22.344c-5.122,29.884-85.834,40.776-123.26,39.939-53.25.278-120.46-13.686-124.37-39.566l-.186,21.97c-.007,22.62 55.942,41.24 124,41.24z" fill="#ffcc23" stroke="#000" stroke-linecap="round" stroke-linejoin="round" stroke-miterlimit="2.4142" stroke-width=".6108"/>
  <path d="m136.69 146.09c67.959 0 123.82-18.526 123.82-41.148s-55.857-41.334-123.82-41.334c-68.051 0-124 18.712-124 41.334s55.946 41.15 124 41.15z" fill="#ffd93c" stroke="#000" stroke-linecap="round" stroke-linejoin="round" stroke-miterlimit="2.4142" stroke-width=".6108"/>
  <path d="m136.69 143.67c64.515 0 117.67-18.06 117.67-39.938 0-21.97-53.155-40.124-117.67-40.124-64.7 0-117.76 18.154-117.76 40.124-7e-3 21.88 53.057 39.94 117.76 39.94z" fill="#ffbf00"/>
  <path d="m136.69 141.81c61.256 0 111.71-17.686 111.71-39.006 0-21.504-50.458-39.192-111.71-39.192-61.442 0-111.9 17.688-111.9 39.192-1e-3 21.32 50.455 39.01 111.9 39.01z" fill="#ffcc23"/>
  <path d="m153.63,131.57c68.052,0 124-18.526 124-41.148v-22.438c-5.12,29.975-85.832,40.96-123.44,40.124-53.157.278-120.28-13.779-124.19-39.751l-.186,22.063c.002,22.618 55.951,41.148 123.82,41.148z" fill="#ffcc23" stroke="#000" stroke-linecap="round" stroke-linejoin="round" stroke-miterlimit="2.4142" stroke-width=".6108"/>
  <path d="m153.63 108.01c68.052 0 124-18.619 124-41.24 0-22.716-55.949-41.334-124-41.334-67.958 0-123.81 18.618-123.81 41.334-4e-3 22.625 55.852 41.24 123.81 41.24z" fill="#ffd93c" stroke="#000" stroke-linecap="round" stroke-linejoin="round" stroke-miterlimit="2.4142" stroke-width=".6108"/>
  <path d="m155.59,106.62c68.052,0 124-18.618 124-41.334v-22.438c-5.214,30.07-85.927,40.962-123.54,40.124-53.06.278-120.28-13.685-124.19-39.752l-.093,22.064c.004,22.716 55.86,41.336 123.82,41.336z" fill="#ffcc23" stroke="#000" stroke-linecap="round" stroke-linejoin="round" stroke-miterlimit="2.4142" stroke-width=".6108"/>
  <path d="m226.71,76.175c27.74-6.609 49.991-18.246 51.945-29.417v21.318c-1.116,8.845-14.243,18.806-35.562,25.88 28.39-17.965-1.96-16.104-16.39-17.781m-160.03,17.224c-21.318-7.076-34.631-17.13-34.631-27.929l.093-19.736c1.862,11.079 18.619,20.854 41.333,27.184-17.408,1.025-25.508,11.728-6.795,20.481m158.17,7.821c13.777-3.351 26.251-7.913 35.562-13.033 4.561-2.514 8.379-5.213 11.171-8.006 2.793-2.699 4.282-4.747 5.121-5.677v18.71c-1.118,8.845-14.151,18.806-35.563,25.882 28.39-18.07-1.86-16.21-16.29-17.88m-160.12,17.31c-21.319-7.075-34.631-17.222-34.631-27.927l.186-19.736c1.769,10.988 18.619,20.763 41.334,27.092-17.501,1.119-25.601,11.821-6.889,20.571m142.99,20.86c27.648-6.609 49.991-18.244 51.945-29.229v21.225c-1.21,8.843-14.241,18.806-35.562,25.787 28.4-17.97-1.95-16.11-16.38-17.78m-160.12,17.22c-21.226-7.075-34.539-17.13-34.539-27.927l.093-19.644c1.862,11.079 18.712,20.758 41.427,27.09-17.501,1.02-25.6,11.82-6.981,20.48m171.76,20.11c27.556-6.609 49.806-18.246 51.854-29.325v21.226c-1.21,8.937-14.243,18.898-35.562,25.879 28.39-17.98-1.96-16.12-16.29-17.79m-160.22,17.22c-21.318-7.075-34.63-17.13-34.63-27.927l.185-19.737c1.863,11.079 18.712,20.854 41.427,27.184-17.501,1.03-25.601,11.83-6.982,20.49m136.2,17.41c13.871-3.352 31.186-9.589 40.588-15.919 2.7-1.49 9.869-4.004 11.357-4.562v12.475c-1.21,8.845-14.243,18.806-35.562,25.88 28.39-18.06-1.96-16.2-16.39-17.87m-160.12,17.31c-21.225-7.076-34.538-17.13-34.538-27.929l.094-19.73c1.861,10.985 18.618,20.76 41.334,27.09-17.41,1.03-25.509,11.82-6.89,20.57" fill="#ffbf0f"/>
  <path d="m155.59 82.972c68.052 0 124-18.618 124-41.334 0-22.714-55.949-41.333-124-41.333-67.959 0-123.82 18.618-123.82 41.333s55.857 41.334 123.82 41.334z" fill="#ffd93c" stroke="#000" stroke-linecap="round" stroke-linejoin="round" stroke-miterlimit="2.4142" stroke-width=".6108"/>
  <path d="m155.59 80.459c64.607 0 117.76-18.062 117.76-40.03 0-22.064-53.155-40.124-117.76-40.124-64.515 0-117.67 18.06-117.67 40.124-6e-3 21.969 53.151 40.03 117.67 40.03z" fill="#ffbf00"/>
  <path d="m155.59 78.597c61.349 0 111.8-17.688 111.8-39.1 0-21.506-50.456-39.192-111.8-39.192-61.35 0-111.81 17.687-111.81 39.192 0 21.412 50.457 39.1 111.81 39.1z" fill="#ffcc23"/>
  <path d="m119.74,218.89v22.53m-10.05-23.09v22.713m-10.054-22.71v22.155m-10.054-23.08v22.436m-10.147-23.93v22.528m-10.055-24.11v22.714m-10.054-24.67v22.714m-10.054-25.13v22.994m-10.147-25.87v22.9m-5.958-24.86v23.088m-5.585-25.32v23.18m-5.4-25.6v23.088m-5.493-25.89v22.808m-5.399-26.07v22.714m-3.817-26.06v22.902m-3.537-26.9v22.808m-2.421-27.09v22.901m128.46,13.22-.187,22.53m10.16-23.09v22.713m9.96-22.99v22.25m10.05-23.37v22.344m10.06-23.64v22.807m10.05-24.11 .092,22.53m9.96-24.77v22.9m10.15-25.32v22.807m10.05-25.6v22.81m6.89-25.14v22.622m5.5-24.85v23.087m5.67-25.7-.092,22.994m4.66-25.78v23.18m4.93-25.23v21.972m3.91-23.27v19.922m3.82-21.69v17.036m1.77-17.79v14.151m-103.8-21.03v22.528m-9.96-23.09v22.809m-10.06-22.72v22.156m-10.05-23.18v22.528m-10.06-23.93v22.435m-10.144-24.02v22.621m-10.055-24.67v22.807m-10.054-25.23v22.994m-10.053-25.78v22.9m-6.052-24.86v23.087m-5.586-25.32v23.179m-5.399-25.61v22.996m-5.493-25.79v22.808m-5.399-26.07v22.714m-3.818-26.06v22.808m-3.537-26.81v22.81m-2.42-27.09v22.9m128.38,13.13-.094,22.528m10.05-23.09v22.809m10.05-23v22.157m10.06-23.28v22.342m10.05-23.64v22.714m9.96-24.01 .092,22.435m10.15-24.68v22.81m10.06-25.32v22.9m10.05-25.6v22.808m6.89-25.23v22.716m5.49-24.86v22.995m5.68-25.69-.092,23.086m4.65-25.79v23.18m4.94-26.35v23.086m3.91-26.63v23.18m3.81-27.83v23.274m1.77-26.99v23.272m-139.08-23.65v22.528m-10.15-23.08v22.81m-10.05-22.72v22.156m-10.06-23.19v22.528m-10.05-23.92v22.528m-10.148-24.11v22.623m-10.054-24.67v22.808m-10.054-25.23v22.994m-10.054-25.79v22.9m-6.051-24.85v23.086m-5.587-25.32v23.18m-5.399-25.6v22.994m-5.492-25.79v22.808m-5.4-26.07v22.716m-3.817-25.97v22.71m-3.537-26.72v22.716m-2.421-27v22.807m128.37,13.12-.092,22.528m10.06-23.08v22.81m10.05-23v22.156m10.15-23.28v22.342m10.05-23.64v22.807m9.87-24.11 .186,22.435m10.05-24.67v22.808m10.05-25.32v22.9m10.06-25.6v22.81m6.88-25.23v22.714m5.5-24.85v22.994m5.68-25.69-.093,23.086m4.65-25.79v23.18m4.93-26.35v23.086m4-26.53v23.086m3.73-27.75v23.181m1.77-25.13v21.414m-110.6-24.39v22.436m-9.96-23v22.714m-10.15-22.71v22.063m-10.05-22.99v22.344m-10.05-23.74v22.342m-10.059-24.01v22.622m-10.054-24.58v22.622m-10.147-25.038v22.808m-10.054-25.694v22.994m-5.958-24.949v23.088m-5.586-25.323v23.181m-5.4-25.511v22.994m-5.492-25.876v22.807m-5.4-26.066v22.716m-3.816-26.066v22.808m-3.538-26.809v22.807m-2.421-27.091v22.903m128.28,13.22-.094,22.436m10.05-23v22.714m10.15-22.99v22.158m9.96-23.28v22.25m10.15-23.55v22.714m9.96-24.01 .094,22.438m10.05-24.58v22.622m10.06-25.23v22.807m10.15-25.51v22.808m6.79-25.137v22.622m5.59-24.759v22.995m5.58-25.697-.094,22.994m4.65-25.791v23.18m5.03-26.346v23.086m3.91-26.625v23.274m3.82-26.719v22.063m1.67-24.389v20.76m-125.67-11.451v22.528m-10.15-23.084v22.807m-9.96-22.804v22.248m-10.05-23.176v22.528m-10.06-23.922v22.435m-10.05-24.016v22.622m-10.151-24.673v22.714m-10.053-25.135v22.994m-10.056-25.785v22.9m-6.05-24.857v23.088m-5.586-25.415v23.274m-5.399-25.601v22.994m-5.493-25.786v22.807m-5.4-26.066v22.714m-3.816-26.066v22.808m-3.538-26.904v22.901m-2.42-27.09v22.902m128.37,13.126-.093,22.528m10.05-23.084v22.807m10.06-23.084v22.25m10.05-23.372v22.438m10.06-23.651v22.713m9.96-24.016 .186,22.438m10.05-24.669v22.807m10.05-25.321v22.9m10.06-25.6v22.716m6.89-25.136v22.716m5.49-24.858v22.996m5.68-25.695-.094,22.995m4.65-25.695v23.182m4.93-26.346v23.086m3.91-26.717v23.273m3.82-27.835v23.18m1.77-26.904v23.274" fill="none" stroke="#000" stroke-linecap="round" stroke-linejoin="round" stroke-miterlimit="2.4142" stroke-width=".1832"/>
 </g>
</svg>
