<?xml version="1.0" encoding="UTF-8" standalone="no"?>
<svg
   xmlns:dc="http://purl.org/dc/elements/1.1/"
   xmlns:cc="http://creativecommons.org/ns#"
   xmlns:rdf="http://www.w3.org/1999/02/22-rdf-syntax-ns#"
   xmlns:svg="http://www.w3.org/2000/svg"
   xmlns="http://www.w3.org/2000/svg"
   xmlns:sodipodi="http://sodipodi.sourceforge.net/DTD/sodipodi-0.dtd"
   xmlns:inkscape="http://www.inkscape.org/namespaces/inkscape"
   enable-background="new 0 0 850.39 793.7"
   version="1.1"
   viewBox="0 0 350.39001 350.70001"
   xml:space="preserve"
   id="svg2"
   inkscape:version="0.91 r13725"
   sodipodi:docname="gear.svg"
   width="350.39001"
   height="350.70001"><metadata
     id="metadata12"><rdf:RDF><cc:Work
         rdf:about=""><dc:format>image/svg+xml</dc:format><dc:type
           rdf:resource="http://purl.org/dc/dcmitype/StillImage" /><dc:title></dc:title></cc:Work></rdf:RDF></metadata><defs
     id="defs10" /><sodipodi:namedview
     pagecolor="#ffffff"
     bordercolor="#666666"
     borderopacity="1"
     objecttolerance="10"
     gridtolerance="10"
     guidetolerance="10"
     inkscape:pageopacity="0"
     inkscape:pageshadow="2"
     inkscape:window-width="640"
     inkscape:window-height="480"
     id="namedview8"
     showgrid="false"
     inkscape:zoom="0.29734156"
     inkscape:cx="425.19501"
     inkscape:cy="374.90112"
     inkscape:window-x="0"
     inkscape:window-y="0"
     inkscape:window-maximized="0"
     inkscape:current-layer="svg2" /><path
     d="m 311.38398,185.97025 c 0.053,-1.649 1.303,-3.603 2.779,-4.342 l 29.968,-15.007 c 1.475,-0.739 2.469,-2.676 2.208,-4.306 l -6.909,-31.843 c -0.442,-1.59 -2.152,-2.977 -3.798,-3.084 l -34.08,-2.204 c -1.647,-0.107 -3.605,-1.398 -4.351,-2.869 l -4.634,-8.521 c -0.83,-1.426 -0.821,-3.754 0.021,-5.173 l 17.209,-29.016001 c 0.842,-1.419 0.641,-3.596 -0.446,-4.837 l -23.188,-23.644 c -1.22,-1.111 -3.399,-1.365 -4.841,-0.564 l -29.653,16.455 c -1.443,0.801 -3.778,0.756 -5.19,-0.098 l -8.013,-4.551 c -1.457,-0.774 -2.698,-2.757 -2.757,-4.406 l -1.22,-33.994 c -0.059,-1.649 -1.4,-3.388 -2.979,-3.865 l -32.116,-7.684 c -1.624,-0.294 -3.591,0.654 -4.372,2.108 l -15.948,29.686 c -0.781,1.454 -2.102,2.63 -2.936,2.614 l -0.761,0 c -4.628,0 -10.717,0.459 -10.717,0.459 -1.645,0.124 -3.762,-0.883 -4.703,-2.239 l -19.495,-28.068 c -0.941,-1.355 -3.012,-2.103 -4.602,-1.663 l -30.676,10.348 c -1.531,0.616 -2.678,2.466 -2.549,4.111 l 2.615,33.362 c 0.129,1.645 -0.9,3.723 -2.286,4.618 l -9.752999,6.753 c -1.325,0.983 -3.656,1.272 -5.181,0.641 l -31.583,-13.076 c -1.525,-0.631 -3.675,-0.144 -4.779,1.082 l -19.684,24.409 c -0.965,1.338 -0.939,3.508 0.059,4.822 l 20.14,26.526001 c 0.998,1.314 1.247,3.614 0.554,5.112 l -5.477,13.112 c -0.579,1.545 -2.382,3.049 -4.006,3.342 l -33.5069999,6.051 c -1.624,0.293 -3.164,1.866 -3.424,3.496 0,0 -3.278,20.605 -3.278,32.905 l 0,0.066 c 10e-4,0.073 1.271,0.595 2.82,1.161 l 31.2689999,11.421 c 1.55,0.566 3.008,2.366 3.241,3.999 l 2.931,15.982 c 0.366,1.609 -0.323,3.845 -1.53,4.97 l -24.766,23.065 c -1.207,1.125 -1.638,3.274 -0.957,4.777 l 13.507,26.188 c 0.832,1.425 2.83,2.295 4.44,1.933 l 32.619,-7.329 c 1.61,-0.362 3.82,0.354 4.912,1.591 l 12.024,12.503 c 1.193,1.14 1.836,3.38 1.428,4.979 l -8.302,32.548 c -0.408,1.599 0.399,3.63 1.793,4.513 l 25.463999,14.35 c 1.477,0.736 3.633,0.377 4.792,-0.797 l 23.62,-23.944 c 1.159,-1.175 3.411,-1.785 5.004,-1.357 l 16.795,3.733 c 1.624,0.29 3.38,1.808 3.901,3.374 l 10.539,31.649 c 0.521,1.565 2.297,2.884 3.947,2.931 0,0 0.884,0.025 2.838,0.025 10.131,0 26.731,-2.17 26.731,-2.17 1.636,-0.214 3.253,-1.71 3.592,-3.325 l 6.976,-33.154 c 0.34,-1.615 1.898,-3.364 3.463,-3.887 l 14.776,-5.602 c 1.518,-0.648 3.81,-0.331 5.095,0.704 l 25.92,20.881 c 1.285,1.035 3.453,1.124 4.818,0.197 l 24.332,-18.452 c 1.26,-1.066 1.81,-3.199 1.223,-4.741 l -12.134,-31.867 c -0.587,-1.542 -0.23,-3.863 0.793,-5.157 l 8.033,-10.95 c 0.928,-1.364 3.029,-2.337 4.67,-2.16 l 33.163,3.56 c 1.641,0.176 3.517,-0.92 4.17,-2.435 l 10.863,-29.706 c 0.482,-1.578 -0.209,-3.671 -1.537,-4.65 l -27.522,-20.311 c -1.328,-0.98 -2.286,-3.125 -2.129,-4.768 l 0.714,-11.296 z m -136.45,98.031 c -55.465,0 -100.429999,-44.963 -100.429999,-100.43 0,-55.466 44.962999,-100.430001 100.429999,-100.430001 55.467,0 100.43,44.963001 100.43,100.430001 0,55.467 -44.963,100.43 -100.43,100.43 z"
     id="path4"
     inkscape:connector-curvature="0"
     style="fill:#1e1b1b" /><ellipse
     cx="572"
     cy="-121"
     rx="0"
     ry="2"
     id="ellipse6" /></svg>