<?xml version='1.0' encoding='utf-8'?>
<svg xmlns="http://www.w3.org/2000/svg" version="1.1" id="Layer_1" x="0px" y="0px" viewBox="0 0 1834 1663.585" enable-background="new 0 0 1834 1663.585"> <g id="Red_Heart"> <path fill="#FF0000" enable-background="new " d="M1783.895,372.718c-49.498-192.738-205.162-314.793-419.314-337.939 c-18.615-2.012-36.719-2.987-54.37-2.987c-186.155,0-318.606,108.709-394.331,257.288 C836.769,134.015,701.731,33.439,504.837,33.444c-13.03,0-26.345,0.441-39.919,1.336C269.09,47.687,100.865,164.789,47.864,393.062 c-95.34,410.626,355.928,830.382,868.016,1238.731C1460.475,1226.215,1885.358,767.797,1783.895,372.718z M1281.987,977 c-72.7-0.014-145.399,0.035-218.092-0.021c-0.084,73.678-0.014,147.385-0.049,221.077c0.119,17.565-0.224,35.144,0.168,52.709 c-97.338-0.007-194.684-0.063-292.022,0.028c-0.161-35.291-0.021-70.582-0.07-105.873c0.021-55.98-0.035-111.961,0.028-167.941 c-91.341,0.07-182.682-0.035-274.023,0.056c-0.007-96.688,0.014-193.37-0.007-290.058c90.978,0.056,181.962-0.007,272.94,0.035 c-0.112-91.404,0.007-182.801-0.063-274.198c96.989-0.007,193.971,0.035,290.96-0.021c-0.035,91.404-0.077,182.801,0.021,274.198 c91.411,0.014,182.836,0,274.254,0.007c0.056,96.618-0.049,193.23,0.049,289.841C1318.054,977.217,1300.014,976.895,1281.987,977z"/> </g> </svg>