<?xml version="1.0" encoding="UTF-8"?>
<svg viewBox="0 0 96 88.000069" xmlns="http://www.w3.org/2000/svg">
 <g transform="translate(-16 -948.36)">
  <path d="m40.228 948.36h51.055l20.717 33h-96z" fill="#5aa02c" fill-rule="evenodd"/>
  <path d="m16 982.36h96v54h-96z" fill="#784421"/>
  <path d="m16 1004.4h8v8h-8z" fill="#502d16"/>
  <path d="m16 1020.4h8v8h-8z" fill="#502d16"/>
  <path d="m16 1028.4h8v8h-8z" fill="#502d16"/>
  <path d="m24 996.36h8v8h-8z" fill="#502d16"/>
  <path d="m24 1004.4h8v8h-8z" fill="#502d16"/>
  <path d="m24 1012.4h8v8h-8z" fill="#502d16"/>
  <path d="m32 996.36h8v8h-8z" fill="#502d16"/>
  <path d="m32 1012.4h8v8h-8z" fill="#502d16"/>
  <path d="m32 1028.4h8v8h-8z" fill="#502d16"/>
  <path d="m40 996.36h8v8h-8z" fill="#502d16"/>
  <path d="m40 1004.4h8v8h-8z" fill="#502d16"/>
  <path d="m40 1020.4h8v8h-8z" fill="#502d16"/>
  <path d="m40 1028.4h8v8h-8z" fill="#502d16"/>
  <path d="m48 1004.4h8v8h-8z" fill="#502d16"/>
  <path d="m48 1012.4h8v8h-8z" fill="#502d16"/>
  <path d="m48 1020.4h8v8h-8z" fill="#502d16"/>
  <path d="m56 996.36h8v8h-8z" fill="#502d16"/>
  <path d="m56 1004.4h8v8h-8z" fill="#502d16"/>
  <path d="m56 1020.4h8v8h-8z" fill="#502d16"/>
  <path d="m56 1028.4h8v8h-8z" fill="#502d16"/>
  <path d="m64 996.36h8v8h-8z" fill="#502d16"/>
  <path d="m64 1004.4h8v8h-8z" fill="#502d16"/>
  <path d="m64 1012.4h8v8h-8z" fill="#502d16"/>
  <path d="m64 1020.4h8v8h-8z" fill="#502d16"/>
  <path d="m64 1028.4h8v8h-8z" fill="#502d16"/>
  <path d="m72 1004.4h8v8h-8z" fill="#502d16"/>
  <path d="m72 1012.4h8v8h-8z" fill="#502d16"/>
  <path d="m72 1028.4h8v8h-8z" fill="#502d16"/>
  <path d="m80 996.36h8v8h-8z" fill="#502d16"/>
  <path d="m80 1004.4h8v8h-8z" fill="#502d16"/>
  <path d="m80 1012.4h8v8h-8z" fill="#502d16"/>
  <path d="m80 1020.4h8v8h-8z" fill="#502d16"/>
  <path d="m80 1028.4h8v8h-8z" fill="#502d16"/>
  <path d="m88 996.36h8v8h-8z" fill="#502d16"/>
  <path d="m88 1012.4h8v8h-8z" fill="#502d16"/>
  <path d="m88 1020.4h8v8h-8z" fill="#502d16"/>
  <path d="m96 996.36h8v8h-8z" fill="#502d16"/>
  <path d="m96 1004.4h8v8h-8z" fill="#502d16"/>
  <path d="m96 1020.4h8v8h-8z" fill="#502d16"/>
  <path d="m96 1028.4h8v8h-8z" fill="#502d16"/>
  <path d="m104 1004.4h8v8h-8z" fill="#502d16"/>
  <path d="m104 1012.4h8v8h-8z" fill="#502d16"/>
  <path d="m104 1020.4h8v8h-8z" fill="#502d16"/>
  <path d="m64 988.36h8v8h-8z" fill="#502d16"/>
  <path d="m16 981.36h96v16.882s-8.0065 1.2048-12 0.82346c-3.7261-0.35588-7.2054-2.6692-10.94-2.8824-4.738-0.27036-9.3795 2.2321-14.121 2.059-4.4287-0.16194-8.6317-2.7208-13.06-2.8824-3.3172-0.12089-6.612 0.76214-9.8792 1.4412-3.3284 0.69175-6.5002 2.5441-9.8792 2.6766-4.7661 0.18663-9.354-2.5138-14.121-2.6766-4.0195-0.13713-12 1.4413-12 1.4413z" fill="#217821"/>
 </g>
</svg>
