<?xml version="1.0" encoding="UTF-8"?>
<svg version="1.1" viewBox="0 0 796.81 593.29" xmlns="http://www.w3.org/2000/svg">
 <g transform="translate(133.33 -67.05)">
  <g transform="matrix(4.7607 0 0 4.7607 -1932 -2723.8)">
   <path d="m409.73 655.17-0.125 0.5-0.0312 0.2812c-1.5512-0.24769-3.1655-0.375-4.8438-0.375-6.3563 0-11.782 1.7782-16.25 5.3125-0.04 0.0298-0.1589 0.10217-0.1875 0.125-2.2219 1.5293-4.1357 3.4182-5.7188 5.5625l0.4062 0.3125c-1.2859 1.9477-2.2946 4.0424-3 6.3125-1.0113 2.5661-1.6666 5.2707-1.9375 8-0.52888 2.9751 0.0121 5.9974 0.28125 8.875 0.46363 2.4681 1.2986 4.8214 2.4688 7.0312h0.0937l0.75-0.3125 0.875-0.3438c0.45166 0.72729 0.93673 1.4401 1.4688 2.125 1.884 2.9055 4.2983 5.4729 7.0938 7.5 1.9274 1.1242 3.7661 2.8282 5.9375 2.5312 1.3438 1.7275 4.1029 1.5758 6.1562 2.0625 0.50931-0.17381 2.3711 0.76206 2-0.4375 2.2324 1.1418 4.6081 0.348 6.9688 0.25 1.9498-0.0888 3.4488-1.0632 5.0625-1.75l-0.4062-1.0938c-8e-3 5e-3 -0.023-5e-3 -0.0312 0l-0.4688-1.4062-0.0312-0.0312c0.14766-0.0686 0.29136-0.11599 0.4375-0.1875v0.0312h0.0312c0.30332-0.10784 0.61492-0.20875 0.9375-0.28125 2.2874-0.90515 3.9163-2.1067 6-3.7812 7.4002-6.1783 10.3-16.429 9.0625-25.781l-1.625 0.4062c0.10818 0.55406 0.14322 1.1191 0.0625 1.7188-0.0612-0.56007-0.12775-1.131-0.21875-1.6875l-0.375 0.0937c-0.0447-0.25549-0.10486-0.49797-0.15625-0.75l0.9688-0.25c-0.41127-2.4274-1.9796-4.4368-2.4375-6.8438-0.18703-2.6805-4.3693-2.4552-3.4688-5.1875-3.009-3.5917-7.0632-6.3483-11.5-7.75-1.2893-0.78126-2.8169-0.73565-4.25-0.78125z" fill="#50260e"/>
   <path d="m378.69 682.19c-1e-5 7.6733 2.538 14.008 7.614 19.005 5.076 4.9968 11.095 7.4953 18.056 7.4954 7.6997-5e-5 14.068-2.5117 19.104-7.5349 5.0364-5.0233 7.5546-11.372 7.5547-19.045-6e-5 -7.6206-2.4919-13.949-7.4756-18.986-4.9838-5.0364-11.26-7.5547-18.827-7.5547-7.5679 0-13.798 2.505-18.689 7.5151-4.8914 5.0101-7.3371 11.378-7.3371 19.104z" fill="#1e0e05"/>
   <g fill="#bb803e" stroke-width=".7" style="text-indent:0;text-transform:none">
    <path d="m402.95 686.78 1.9688-1.4375 0.0937 0.1875-2.0625 1.25z"/>
    <path d="m405.48 685.28v-0.3438l0.5-0.375 0.3438 0.2188-0.8438 0.5z"/>
    <path d="m404.98 685-1.2812-1.8438 1.3125 0.8125v0.0312l0.0625 0.9375-0.0937 0.0625z"/>
    <path d="m405.48 684.69 0.0312-0.4375 0.3125 0.2188-0.3438 0.2188z"/>
   </g>
   <g fill="#ae5919">
    <path d="m402.95 686.78 1.9688-1.4375 0.0937 0.1875-2.0625 1.25z"/>
    <path d="m405.48 685.28v-0.3438l0.5-0.375 0.3438 0.2188-0.8438 0.5z"/>
    <path d="m404.98 685-1.2812-1.8438 1.3125 0.8125v0.0312l0.0625 0.9375-0.0937 0.0625z"/>
    <path d="m405.48 684.69 0.0312-0.4375 0.3125 0.2188-0.3438 0.2188z"/>
   </g>
   <path d="m403.21 710.41c-1.5054-0.24835-2.6215-1.5043-4.1268-1.8138-3.3834-0.63367-6.0136-2.7182-8.9702-4.2165-2.7901-1.3646-4.4726-3.7249-5.6185-6.4605l1.1999-0.2976 2.9142-1.4779 3.4573-2.0741 4.0654-2.1589 3.056-1.0834 3.9139-2.2085 1.047-0.599 0.1899-9e-3 0.4566-0.1344 1.9107-0.7164-0.2386 4.3775 0.1531-1.0203 0.3676-2.8201 0.7016 2.0349 1.4445 4.5152 1.0038 1.3471 0.4718 1.8501 2.3365 2.576 0.832 3.8443 2.5175 2.3772 0.5398 1.5435c-0.0431 0.0272-0.0929 0.0503-0.13521 0.0782-1.42 2.2099-5.0081-0.12805-6.9387 1.9738-1.8782-0.90879-4.3873 0.15388-6.5513 0.57225z" fill="#bb803e" stroke-width=".7" style="text-indent:0;text-transform:none"/>
   <path d="m403.15 710.66c-2.0534-0.48667-4.7999-0.32669-6.1438-2.0542-2.1714 0.2969-4.002-1.408-5.9294-2.5322-2.9367-2.1295-5.474-4.8422-7.3944-7.9311l1.8501-0.4718c0.22481 0.41521 0.45569 0.86009 0.66992 1.2443 0.25932 1.6146 1.0593 2.073 2.443 2.211 0.57162 2.2987 2.573 1.2799 3.9951 3.1828 2.0567 1.8036 4.543 3.4519 7.2754 3.385 0.96471 0.27284 1.4141 1.2165 2.6049 1.3806 3.496-0.36121 6.9721 0.99852 10.334-0.62482 1.505 0.28262 2.7579-0.14329 3.9374-0.82094l0.4017 1.1179c-1.6137 0.68684-3.1026 1.6378-5.0524 1.7266-2.3606 0.098-4.7576 0.90646-6.99-0.23536 0.37112 1.1996-1.4923 0.24847-2.0016 0.42228z" fill="#1e0e05"/>
   <path d="m401.56 701.31c-0.89891-0.34897 0.0642-1.8826-1.0067-1.8509-3.5751-0.66121-6.8584-2.4088-8.8902-5.1511l0.4056-0.2349 4.0654-2.1589 3.056-1.0834 3.9139-2.2085 1.047-0.599 0.1899-9e-3 0.4566-0.1344 1.9107-0.7164-0.2386 4.3775 0.1531-1.0203 0.3676-2.8201 0.7016 2.0349 1.4445 4.5152 1.0038 1.3471 0.4718 1.8501 2.0011 2.2213c-3.6074 0.85146-7.3879 1.2529-11.053 1.6406z" fill="#ae5919"/>
   <path d="m404.45 696.56c-3.5074-1.0094-7.6483-1.4123-9.9019-3.7926l1.5805-0.8501 3.056-1.0834 3.9139-2.2085 1.047-0.599 0.031 4e-3 2.3955-1.3509 0.0709 0.1973-2.2418 1.1175 0.3909-0.1108 1.9107-0.7164-0.2386 4.3775 0.1531-1.0203 0.3676-2.8201 0.7015 2.0349 1.4444 4.5152 1.0038 1.347 0.1706 0.6812c-1.5214 0.13185-3.0926 0.0938-4.8763-0.0148-0.32906 0.0924-0.65708 0.19691-0.979 0.29242z" fill="#ba6422"/>
   <path d="m416.27 705.04-1.3009-2.9935-2.2863-3.4294-0.9657-2.1337-1.4163-2.5669-1.4559-3.0126-0.7024-2.2273-1.5022-2.8923-0.5566-1.1074 0.0152-0.1241 1.2859-0.4717 0.4581 0.3711-0.3613-0.3907 0.5268-0.1871 2.9635-0.8008 6.4348-1.6336 1.9199-1.2754 2.6463-0.5249 4.3125-0.761 2.2486-1.6443 2.4019-0.5864c0.43118 2.637 0.54406 5.3198 0.18334 7.9882-0.0826 3.3792-2.2268 6.3659-1.9874 9.768-1.4414 2.6904-4.1511 4.4832-6.1217 6.7727-1.6257 2.358-4.5497 2.7194-6.7402 3.863z" fill="#bb803e" stroke-width=".7" style="text-indent:0;text-transform:none"/>
   <path d="m416.71 706.04-0.4206-0.9333-0.1012-0.2014c1.0975-0.6953 2.1451-1.5772 3.2706-2.2743 2.0703-0.0555 2.6628-2.7298 4.2152-2.788 1.2089-2.2792 2.4542-4.7765 4.7199-6.1263 0.69615-1.5409-0.1452-3.9417 1.8505-4.8102 0.0362 0.19196 0.0718 0.26502 0.0898 0.29439 0.0366-0.22378-0.11539-1.7464-0.40361-2.0961 0.99572-2.308 0.69698-4.8603 0.84889-7.4206 0.47772-1.1135 0.50195-2.1223 0.31529-3.0783l1.6232-0.3987c1.2379 9.3519-1.6548 19.597-9.055 25.776-2.0837 1.6745-3.7204 2.8904-6.0078 3.7956-0.32258 0.0725-0.6419 0.15383-0.94522 0.26167z" fill="#1e0e05"/>
   <path d="m411.98 697.11-0.2688-0.6313-1.4163-2.5669-1.4559-3.0126-0.7024-2.2273-1.5022-2.8923-0.5566-1.1074 0.0152-0.1241 1.2859-0.4717 0.4581 0.3711-0.3613-0.3907 0.5268-0.1871 2.9635-0.8008 6.4348-1.6336 1.9199-1.2754 2.6463-0.5249 3.154-0.557c0.35238 5.1481-1.563 10.496-4.7216 14.596-2.57 1.658-5.436 2.71-8.4195 3.4363z" fill="#ae5919"/>
   <path d="m410.2 693.71-1.3547-2.8112-0.7024-2.2273-1.5022-2.8923-0.5566-1.1074 0.0152-0.1241 1.2859-0.4717 0.4581 0.3711-0.3613-0.3907 0.5268-0.1871 2.9635-0.8008 6.4348-1.6336 1.9199-1.2754 0.1937-0.0392c0.29233 1.0017 0.59534 2.0099 0.91723 3.0408 0.25669 3.4928-2.3568 6.197-5.0668 8.9488-1.8125 0.89452-3.4735 1.3714-5.1712 1.6z" fill="#ba6422"/>
   <path d="m381.63 696.79c-1.7516-2.6588-1.7629-5.8516-2.6356-8.8436-1.5504-2.8802-0.67136-6.2042 0.25079-9.1522 0.81076-2.9985 1.2333-6.2318 3.1979-8.7889 0.45566-0.5768 0.93945-1.1575 1.4173-1.721l3.5751 2.5697 2.4092 2.1168 3.0802 2.4981 3.486 2.9673 2.2851 2.3199 3.3802 2.8257 1.5179 1.2932 0.0219 0.0663 0.1099 0.3317 0.726 1.747-2.6317 1.1664-2.8567 0.9759-4.4942 2.2546-3.5464 1.1603-1.5704 0.8148-2.3403 1.3348-5.3822 2.063z" fill="#bb803e" stroke-width=".7" style="text-indent:0;text-transform:none"/>
   <path d="m380.8 697.12c-1.1702-2.2098-2.0206-4.5854-2.4842-7.0535-0.26915-2.8776-0.79571-5.8731-0.26683-8.8482 0.47983-4.835 2.153-9.62 4.9081-13.625l0.1103 0.1106 1.0284 0.7487c-0.46438 0.53348-0.88776 1.1166-1.2627 1.7434 1.0331 2.1006-1.2745 2.6478-1.193 4.7532-1.4948 2.076-1.6865 4.0814-1.2711 6.3838-0.99077 1.186-1.4204 3.9577-0.23672 3.818 0.28478 2.4505-0.59576 4.9769 0.57891 7.3461 0.46779 1.0318 1.162 2.4655 1.8932 3.9367l-1.7071 0.6687-0.0972 0.0175z" fill="#1e0e05"/>
   <path d="m388.87 693.67c-0.30371-0.53533-0.55385-1.1234-0.76145-1.7205-1.1978-4.4352-2.9745-8.9328-1.2485-13.411 0.48682-2.0714 1.5317-3.9746 2.9579-5.6029l0.0264 0.0353 3.0802 2.4981 3.486 2.9673 2.2851 2.3199 3.3802 2.8257 1.5179 1.2932 0.0219 0.0663 0.1099 0.3317 0.726 1.747-2.6317 1.1664-2.8567 0.9759-4.4942 2.2546-3.5464 1.1604-1.5704 0.8148-0.4822 0.2776z" fill="#ae5919"/>
   <g transform="matrix(.98969 .14321 .14321 -.98969 171.33 1196.3)">
    <path d="m146.03 530.41c-0.51229 0.59191-0.93496 1.3209-1.2188 2.2188-1.8696 1.9566-2.1726 4.7065-1.4375 7.5938 3e-3 0.0106-3e-3 0.0208 0 0.0312-0.12145 1.8663 0.60883 4.3083 1.9062 6.625l3.3125-2.0938 2.5938-1.9688 3.75-2.3125 1.6875-1.0625 0.0312-0.0625 0.0937-0.1562 1.25-0.625v-0.0312l0.0625-0.9375-0.0937-0.0625-0.9062 1.0625 0.7188-1.1875-2.4375-1.5312-2.6875-1.375-4.125-2.875-2.5-1.25z" fill="#ba6422"/>
   </g>
   <path d="m405.95 684.62-0.027-0.0349-0.2513-0.2526 0.7104-0.3818-0.2599 0.0613-0.4307 0.1655-0.1319 0.0461-0.4484-0.4353 0.3781-2.22 1.1376-6.439 0.1262-2.2207 0.5186-2.5801 0.8525-4.2071 0.6823-4.3549 0.716-5.3587c2.7324 0.74316 5.5962 1.1364 8.0475 2.6032 2.4462 1.213 4.2973 3.1387 6.3589 4.9709 1.3729 2.2615 2.5064 4.6685 4.0477 6.7864 0.62379 1.7789 1.13 3.6314 1.5046 5.4849l-1.3343 0.3336-3.8117 1.9704-5.0027 0.9361-4.3228 1.7791-3.1883 0.7899-4.1717 1.8299-1.6997 0.728z" fill="#bb803e" stroke-width=".7" style="text-indent:0;text-transform:none"/>
   <path d="m429.52 676.23c-0.38896-1.0403-0.91212-2.0709-1.2938-3.1897 0.9095 0.0715-0.54022-2.014-0.83941-2.0605-1.2096-2.5019-1.5346-4.9533-3.9712-6.3986-1.4406-1.635-1.6039-3.3794-3.9398-3.6852-1.7367-2.1456-4.3036-2.4795-6.5041-2.8472-1.1465-0.48921-2.3457-0.73599-3.5364-0.92432l0.1861-1.4569 0.0943-0.492c1.4331 0.0456 2.9608-0.0178 4.25 0.76346 4.4368 1.4017 8.5053 4.18 11.514 7.7717-0.90055 2.7323 3.2797 2.488 3.4668 5.1685 0.45793 2.4069 2.0199 4.436 2.4311 6.8634l-1.8579 0.4873z" fill="#1e0e05"/>
   <path d="m405.95 684.62-0.027-0.0349-0.2513-0.2526 0.7104-0.3818-0.2599 0.0613-0.4307 0.1655-0.1319 0.0461-0.4484-0.4353 0.3781-2.22 1.1376-6.439 0.1262-2.2207 0.5186-2.5801 0.8525-4.2071 0.2329-1.577c1.0219 0.24358 2.0434 0.61094 3.0628 1.1789 4.3526-0.25443 6.1384 3.1295 9.241 5.5911 1.7416 2.2396 2.7139 4.7536 3.0926 7.3574l-4.421 0.8214-4.3228 1.7791-3.1883 0.7899-4.1717 1.8299-1.6997 0.728z" fill="#ae5919"/>
   <g fill="#ba6422">
    <path d="m404.91 685.09 0.0436-0.341 0.5435-0.3086 0.3133 0.2605-0.9003 0.389z"/>
    <path d="m404.99 684.5 0.0864-0.43 0.2823 0.2566-0.3687 0.1734z"/>
    <path d="m405.95 684.62-0.027-0.0349-0.2513-0.2526 0.7104-0.3818-0.2599 0.0613-0.4307 0.1655-0.1319 0.0461-0.4484-0.4353 0.3781-2.22 1.1376-6.439 0.1262-2.2207 0.5186-2.5801 0.3378-1.6581c6.6542-0.35969 8.5216 4.9153 10.392 11.377l-2.9918 1.2245-3.1883 0.7899-4.1717 1.8299-1.6997 0.728z"/>
   </g>
   <path d="m403.99 685.22-1.8666-1.8546-2.0735-2.1972-4.8152-3.6317-1.4434-1.9562-2.9563-1.2423-2.3159-2.9858-3.6106-2.968-1.3454-1.0291c1.5078-1.7403 3.1223-3.3818 4.9224-4.8021 2.7018-1.5309 4.9566-4.281 8.3284-4.0993 3.4998 0.17364 6.8411-1.9468 10.339-0.71253 0.24775 0.0922 0.50233 0.1756 0.75401 0.25737l-0.2942 3.1764-1.1916 6.1468-0.338 2.7923-0.3165 3.5832-1.0158 4.3418-0.4572 3.2178-0.3037 3.9632z" fill="#bb803e" stroke-width=".7" style="text-indent:0;text-transform:none"/>
   <path d="m383.83 667.54-1.2606-0.9548c1.5831-2.1443 3.4968-4.05 5.7187-5.5794 0.58304-0.46547 3.7049-2.4877 2.456-1.4088 2.5422-1.2796 5.6796-1.2198 8.1654-1.9143 1.7902-2.2666 4.8808-1.317 7.3896-1.2919 0.51788 0.34547 1.0951 0.51609 1.7167 0.60539l-0.184 1.867c-0.50727-0.0722-1.001-0.1514-1.5139-0.23177-3.2307-1.2733-6.0211 0.0589-9.2137 0.54619-3.8081 1.3589-7.5381 3.2193-10.398 6.1582-1.0269 0.61945-2.0005 1.3442-2.8765 2.2042z" fill="#1e0e05"/>
   <path d="m403.99 685.22-1.8666-1.8546-2.0735-2.1972-4.8152-3.6317-1.4434-1.9562-2.9563-1.2423-1.5632-2.0036c1.8322-1.961 4.1979-3.5063 6.7648-4.4322 3.4926-1.1073 7.0513-2.1521 10.59-1.6565l-0.2054 1.0761-0.338 2.7923-0.3165 3.5832-1.0158 4.3418-0.4572 3.2178-0.3037 3.9632z" fill="#ae5919"/>
   <path d="m403.99 685.22-1.8666-1.8546-2.0735-2.1972-4.8152-3.6317-1.4434-1.9562-0.9235-0.4059c3.1478-3.8821 8.1588-6.8483 12.987-4.5232 0.0326 3e-3 0.0604 9e-3 0.0929 0.0123 0.0341-5e-3 0.0633-0.0145 0.097-0.0186l-0.2778 3.0524-1.0158 4.3418-0.4572 3.2178-0.3036 3.9631z" fill="#ba6422"/>
  </g>
  <g transform="matrix(4.7607 0 0 4.7607 -1883.5 -2770.8)">
   <path d="m506.13 666.64c-2.9356-0.0455-5.5745 1.6628-8.5312 1.4688-2.5697 1.0441-4.9995 2.4202-7.2812 3.9688-1.9925 1.5618-3.8644 3.3704-5.4062 5.4062l1.0312 0.8438 0.9375 0.8125c-0.3677 0.60526-0.72223 1.2076-1.0312 1.8438l-1.625-0.6875-2.0312-0.875c-0.75524 1.361-1.3708 2.8085-1.7812 4.3125 1e-3 2.7717-1.8146 4.9236-1.4375 7.7812-0.13697 3.2652 0.30474 6.5142 1.0625 9.6562 1.0119 4.1582 3.3032 7.8722 6.2188 10.969 0.21002 0.26584 0.39838 0.53085 0.625 0.78125l0.4375-0.1562 0.6562-0.8438 0.4062-0.5 0.0937-0.125 1.2813-1.5938c0.0197 0.0214 0.0427 0.0411 0.0625 0.0625l-0.625 0.8438-1.3438 1.875c1.6478 1.744 3.6452 3.1136 5.625 4.2188 2.3802 1.6025 5.3048 2.4222 8.1562 2.6875 3.5702 0.82233 7.2971 0.7005 10.906-0.0312l-0.4375-1.2812-0.375-1.0312c0.42516-0.0572 0.83478-0.11095 1.25-0.1875l1.3438 2.375 0.6562 1.2188c0.95622-0.29191 1.8942-0.62784 2.8125-1 3.9819-1.7026 7.5165-4.4463 10.125-7.9062-0.31284-2.6857 4.0912-3.6916 3.5312-6.625 1.3908-2.8538 2.0454-5.9187 2.1562-9.0625l-0.9688-0.4688 1.4688 0.4375 0.6875 0.25c0.31959-2.7647 0.24714-5.5874-0.0937-8.3125-0.94452-7.1941-5.0971-13.82-11-17.969l-1.1875 1.5938-0.3438 0.4375c-0.27446-0.19244-0.5625-0.38286-0.84375-0.5625l0.1875-0.3125c-1.2188-0.77935-2.5038-1.474-3.8438-2.0312-2.171-0.48313-4.3149-1.8488-6.5625-1.5938-0.31461 0.18357-0.57905 0.23014-0.8125 0.25-0.14462-0.0131-0.29178-0.0202-0.4375-0.0312-0.77577-0.21193-1.2376-1.0779-2.4375-0.78125-0.43435-0.0896-0.86188-0.11851-1.2812-0.125z" fill="#50260e"/>
   <path d="m483.4 692.61c0-7.1993 2.3812-13.143 7.1437-17.831 4.7625-4.6882 10.409-7.0323 16.941-7.0324 7.2241 6e-5 13.199 2.3566 17.924 7.0695 4.7253 4.713 7.088 10.669 7.088 17.869-5e-5 7.1499-2.338 13.088-7.0138 17.813-4.6759 4.7254-10.564 7.088-17.664 7.088-7.1004 0-12.945-2.3503-17.535-7.0509-4.5893-4.7006-6.8839-10.675-6.8839-17.924z" fill="#1e0e05"/>
   <path d="m506.56 667.5c-1.5242 0.0684-2.7499 1.1834-4.2812 1.3125-3.4346 0.2287-6.293 1.9873-9.4062 3.125-3.1788 1.111-5.2196 3.5347-6.7188 6.4062-0.0814 0.0809-0.14167 0.16705-0.21875 0.25l1.125 0.9688 3.25 1.1875 2.5625 1.625 4.5 2.6562 2.9062 1.4375 3.625 2.6562 2.2188 1.625-0.1562-3.3125 0.1875 1 0.3438 2.3125 1.7812-2.0938 1.2812-1.7812 2.7187-3.9062 1.3438-0.9688 1-1.625 2.75-2.5625 1.5-2.25 1.9375-3.1562c-0.39783-0.24126-0.784-0.49175-1.125-0.78125-1.1484-2.3625-5.0193-0.49695-6.6875-2.8125-1.9725 0.68007-4.3382-0.6409-6.4375-1.3125z" fill="#bb803e" stroke-width=".7" style="text-indent:0;text-transform:none"/>
   <path d="m506.13 666.91c-2.9356-0.0455-5.5745 1.6628-8.5312 1.4688-2.5697 1.0441-4.9995 2.4202-7.2812 3.9688-1.9925 1.5618-3.8644 3.3704-5.4062 5.4062l1.7812 1.5c1.0922-1.2641 0.88969-2.8648 2.25-3.9688 1.5881-0.6226 3.1666-2.5365 4.125-2.8125 2.1105 0.70619 3.6719-2.2327 5.0938-2.0938 1.7484 0.53037 3.8706-1.6237 5.0938-1.0625 1.2232 0.42276 1.7489-1.429 3.4062-1 1.9045-0.0844 2.8843 2.1698 4.9062 1.2188 1.2734-0.84373 1.5909 1e-3 1.6875 0.65625 1.9038-0.31946 3.2815 2.1928 5.0938 0.6875 1.6976 0.17309-0.09 1.7981 1.9375 2.3438h0.0312l0.8438-1.4062 0.3438-0.5938c-1.2188-0.77935-2.5038-1.474-3.8438-2.0312-2.171-0.48313-4.3149-1.8488-6.5625-1.5938-1.7529 1.0228-1.975-0.98582-3.6875-0.5625-0.43435-0.0896-0.86188-0.11851-1.2812-0.125z" fill="#1e0e05"/>
   <path d="m505.35 676.91c-0.89357 0.18806-0.22287 1.7565-1.2188 1.5625-3.9765 0.0796-7.8446 1.5511-10.125 4.5625l3.375 2 2.9062 1.4375 3.625 2.6562 2.2188 1.625-0.1562-3.3125 0.1875 1 0.3438 2.3125 1.7812-2.0938 1.2812-1.7812 2.7187-3.9062 1.3438-0.9688 1-1.625 0.4375-0.4062c-3.1383-1.2724-6.4756-2.1711-9.7188-3.0625z" fill="#ae5919"/>
   <path d="m505.97 681.47c-1.8536 1.8012-5.0368 1.3498-7.0312 3.1875-0.2675 0.24328-0.53494 0.48302-0.78125 0.75l2.125 1.0625 3.625 2.6562 2.2188 1.625-0.1562-3.3125 0.1875 1 0.3438 2.3125 1.7812-2.0938 1.2812-1.7812 2.5-3.5938c-2.0593-0.69903-4.1891-1.19-6.0938-1.8125z" fill="#c06926" opacity=".694"/>
   <path d="m522.92 671.14-1.0312 1.3438-1.9375 3.5625-1.5625 1.75-2.125 2.0625-2.2812 2.4375-1.3438 1.9062-2.2812 2.3125-1.4375 1.4688 0.3125-0.2812-0.6562 0.7812-0.6562 0.7188 3.5 1.1562 3 0.7188 6.4688 1.4375 1.9688 1.2188 2.625 0.4375 4.3438 0.6562 3.75 1.125c0.15855-1.184 0.23333-2.3574 0.21875-3.5625 0.33011-3.364-1.4337-6.59-0.78125-9.9375-1.1025-2.8461-3.5733-4.956-5.25-7.4688-1.0481-2.0067-3.0477-2.8749-4.8438-3.8438z" fill="#bb803e" stroke-width=".7" style="text-indent:0;text-transform:none"/>
   <path d="m523.7 670.08-1.1875 1.5938c1.5941 0.46479 2.2985 1.5689 3.9375 3.125 1.9276 1.2746 2.7315 3.6571 4.2188 5.4688 1.2421 1.1252 2.5174 1.8416 1.3125 3.3438 0.38553 1.9424 0.30983 5.0385 1.0625 6.0312 0.76077-1.2722-0.74462 1.919 0.125 2.375-3e-3 1.236-0.37549 2.4637-0.53125 3.6562l1.4688 0.4375 0.6875 0.25c0.31959-2.7647 0.24719-5.5874-0.0937-8.3125-0.94452-7.1941-5.0971-13.82-11-17.969z" fill="#1e0e05"/>
   <path d="m517.48 678.71-1.2188 1.1562-2.2812 2.4375-1.3438 1.9062-2.2812 2.3125-1.4375 1.4688 0.3125-0.2812-0.6562 0.7812-0.6562 0.7188 3.5 1.1562 3 0.7188 6.4688 1.4375 1.9688 1.2188 2.625 0.4375 1.4375 0.2188c0.23775-3.8903-0.73693-7.9207-2.5625-11.344-2.0247-1.8466-4.3644-3.2288-6.875-4.3438z" fill="#ae5919"/>
   <path d="m514.36 681.89-0.375 0.4062-1.3438 1.9062-2.2812 2.3125-1.4375 1.4688 0.3125-0.2812-0.6562 0.7812-0.6562 0.7188 3.5 1.1562 3 0.7188 6.4688 1.4375 1.2812 0.8125c0.11466-2.1423-0.22252-4.3215-1.0938-6.25-1.3984-2.6464-3.9376-4.1314-6.7188-5.1875z" fill="#c06926" opacity=".694"/>
   <path d="m483.39 680.21c-1.5987 2.5056-1.7901 5.523-2.7363 8.3189-1.6715 2.8116-0.93458 6.17-0.13863 9.1546 0.68252 3.0302 0.9672 6.2786 2.8213 8.9169 1.4126 1.9535 2.9538 3.8625 4.6509 5.5901l3.5165-4.3461 1.9207-2.7392 2.2136-2.3292 2.7402-3.6391 1.7557-2.8167 2.501-3.5206 2.4866-2.7339-0.8277-0.4185-0.1307-0.0496-0.6939-0.3379-2.8437-1.0934-5.281-2.8248-2.5761-0.9321-2.5603-0.7766-3.5043-2.0315-3.3137-1.3912z" fill="#bb803e" stroke-width=".7" style="text-indent:0;text-transform:none"/>
   <path d="m482.21 679.7c-0.75524 1.361-1.3835 2.7929-1.794 4.2969 1e-3 2.7717-1.8176 4.9214-1.4405 7.779-0.13697 3.2652 0.31702 6.5176 1.0748 9.6596 1.0119 4.1582 3.2888 7.8955 6.2044 10.992 0.21002 0.26584 0.41822 0.53222 0.64484 0.78262l0.4226-0.1685 1.1701-1.4694c-0.33632-0.34789-0.66357-0.68624-1.0152-1.0277-1.5763-2.3183-4.5772-4.4444-4.5816-7.0734-2.1644-1.2632 0.21746-4.6147-2.1056-6.5081-0.12103-1.5764 0.44657-3.3163-0.56716-4.9681-0.0265-2.0919 1.6767-2.9922 1.7921-5.5531 0.64574-2.0391 0.46774-4.6278 2.23-5.8803l-2.0349-0.8614z" fill="#1e0e05"/>
   <path d="m491.76 684.1c-0.0354 0.0739-0.0686 0.15506-0.10227 0.23025-1.4939 4.086-3.5369 8.1778-2.276 12.544 0.43376 2.9894 2.1218 5.7094 4.4365 7.8106l1.8162-1.912 2.7402-3.6391 1.7557-2.8167 2.501-3.5206 2.4866-2.7339-0.8277-0.4185-0.1307-0.0496-0.6939-0.3379-2.8437-1.0934-5.281-2.8248-2.5761-0.9321-1.0048-0.3063z" fill="#ae5919"/>
   <path d="m496.18 685.79c-2.2432 3.3776-2.9779 7.908-1.6646 11.76 0.56588 1.353 1.3904 2.5483 2.3717 3.5599l1.4958-1.9737 1.7557-2.8167 2.501-3.5206 2.4866-2.7339-0.8277-0.4185-0.1307-0.0496-0.6939-0.3379-2.8437-1.0934-4.4501-2.3752z" fill="#c06926" opacity=".694"/>
   <path d="m506.16 691.32 2.3824 1.3228-0.2292-0.0641-0.4666-0.1902-1.8788-0.8538 0.4061 1.3962 0.9444 2.8379 2.0867 6.2169 0.3231 2.1953-0.1602 2.3541 1.6936 3.4949 0.9429 5.6753 2.1148 3.8173c1.9269-0.47485 3.8266-0.96205 5.5354-1.9962 2.4401-1.2251 4.3126-3.1642 6.365-5.0066 1.3616-2.2683 2.479-4.7119 4.0097-6.8375 1.131-3.2774 1.9093-6.7058 2.0537-10.171l-2.1864-1.0336-3.5787-0.1236-3.6617 0.6755-4.8602-1.9395-2.9533 0.5499-4.4083-1.1483-4.4744-1.1711z" fill="#bb803e" stroke-width=".7" style="text-indent:0;text-transform:none"/>
   <path d="m531.41 695.09c0.0428 0.40663 0.13577 0.78829 0.28026 1.1607-0.56761 2.3522-0.68572 4.9927-1.7693 7.328-0.51429 1.6904-0.28665 3.2184-1.9867 4.2675-1.1943 1.3057-1.8988 2.9416-1.5302 4.1438-2.43-1.0963-2.127 2.8071-3.8611 2.9717-1.1008-0.33879-3.1743 1.7329-3.1399 1.9933-1.7667 1.2606-3.6658 1.1437-5.5022 1.7711l1.0852 1.9995c0.95622-0.29191 1.8804-0.63004 2.7987-1.0022 3.9819-1.7026 7.5329-4.4441 10.141-7.9041-0.31284-2.6857 4.0635-3.6792 3.5036-6.6126 1.3908-2.8538 2.0558-5.9393 2.1667-9.0831l-2.1864-1.0336z" fill="#1e0e05"/>
   <path d="m506.16 691.32 2.3824 1.3228-0.2292-0.0641-0.4666-0.1902-1.8788-0.8538 0.4061 1.3962 0.9444 2.8379 2.0867 6.2169 0.3231 2.1953-0.1602 2.3541 1.6936 3.4949 0.1091 0.5845c0.58443-0.18377 1.174-0.44045 1.7619-0.7384 4.1093 0.40236 5.9314-2.7272 8.9586-4.9413 2.5554-3.0328 3.5738-6.6929 3.4745-10.392l-2.7096 0.486-4.8602-1.9395-2.9533 0.5499-4.4083-1.1483-4.4744-1.1711z" fill="#ae5919"/>
   <path d="m506.16 691.32 2.3824 1.3228-0.2292-0.0641-0.4666-0.1902-1.8788-0.8538 0.4061 1.3962 0.9444 2.8379 2.0867 6.2169 0.3231 2.1953-0.1498 2.1951c1.943-0.22901 3.8409-0.8173 5.4981-1.8021 3.924-2.0337 5.7186-6.2072 5.649-10.397l-2.7295-1.0876-2.9533 0.5499-4.4083-1.1483-4.4744-1.1711z" fill="#c06926" opacity=".694"/>
   <path d="m506.1 689.81-1.7201 2.2201-1.7323 2.4407-3.7014 5.404-1.5876 1.5812-1.44 2.1957-2.3738 2.9985-3.4946 3.0961-1.3168 1.8085c0.64398 0.6644 1.3172 1.2911 2.0157 1.8948 2.6307 1.65 4.7605 4.4981 8.137 4.4672 3.5041-0.0171 6.7473 2.2504 10.297 1.1737 0.95327-0.30713 1.9296-0.52278 2.9169-0.72453l-0.5849-1.6743-1.5058-5.0446-0.1033-3.3474-1.5341-4.2893 0.2459-3.6601-1.637-4.0294-0.6002-4.3707-0.2804-2.14z" fill="#bb803e" stroke-width=".7" style="text-indent:0;text-transform:none"/>
   <path d="m489.21 710.89-1.3425 1.8735c1.6478 1.744 3.6259 3.1119 5.6057 4.2171 2.3802 1.6025 5.3178 2.4112 8.1692 2.6764 3.5702 0.82233 7.3062 0.72275 10.915-9e-3l-0.7055-1.9775c-2.4473-0.12799-4.3924 1.9366-6.8098 0.68704-1.8572-0.75626-3.4834-0.6044-5.7976-1.3772-2.7852 1.0573-4.1089-2.161-6.5612-2.9419 1.1348 0.53128 2.6818 1.7439 0.66873 0.47503-1.638-0.92099-2.871-2.2669-4.1424-3.623z" fill="#50260e"/>
   <path d="m506.1 689.81-1.7201 2.2201-1.7323 2.4407-3.7014 5.404-1.5876 1.5812-1.44 2.1957-0.7362 0.9111c1.1107 0.92408 2.3417 1.7078 3.6523 2.3169 3.5919 1.5012 7.2606 2.9458 11.088 2.3282l-0.0164-0.9082-1.5341-4.2893 0.2459-3.6601-1.637-4.0294-0.6002-4.3707-0.2804-2.14z" fill="#ae5919"/>
   <path d="m506.1 689.81-1.7201 2.2201-1.7323 2.4407-3.7014 5.404-0.923 0.9273c2.7434 2.6475 6.7022 3.99 10.598 3.9079l-0.2491-0.6998 0.2459-3.6601-1.637-4.0294-0.6002-4.3707-0.2804-2.14z" fill="#c06926" opacity=".694"/>
  </g>
  <g transform="matrix(4.3161 -2.009 2.009 4.3161 -3252.3 -2014.9)">
   <g fill="#50260e">
    <path d="m501.26 741.64c-0.90523 0.0247-1.8077 0.26717-2.6875 0.4375v0.0625c-6.8854 0.20192-12.605 2.589-17.125 7.2188-0.60702 0.62174-1.1584 1.2725-1.6875 1.9375-0.027 0.0259-0.0671 0.0362-0.0937 0.0625 0.85619-1.411-1.4948 1.4714-1.9062 2.0938-1.6434 2.139-2.8725 4.5663-3.7188 7.0938l1.0625 0.3438c-0.19233 0.81854-0.31778 1.6724-0.4375 2.5312l-1.75-0.5312-1.75-0.5312h-0.0937c-0.99507 2.294-1.6669 4.7221-1.9375 7.2188-0.0449 2.8898-0.35205 5.9187 0.40625 8.8438 0.85382 4.7831 2.911 9.4397 5.9688 13.219l0.0937-0.125 0.75-0.6562 0.0937-0.0937 0.125-0.0937 2.5625-2.1562c2.5542 2.3368 5.5664 4.1796 8.7812 5.4375 2.1484 0.6029 4.3483 1.8026 6.375 0.96875 1.7354 1.3337 4.359 0.4833 6.4688 0.4375 0.44917-0.29641 2.4736 0.16128 1.8125-0.90625 2.4479 0.54319 4.5838-0.84225 6.8438-1.5312 1.8647-0.57667 3.0486-1.8666 4.4375-2.9375l-0.3438-0.5312c0.39834-0.25712 0.80245-0.49906 1.1875-0.78125l1.2812 1.3438c-9e-3 0.0112-0.0225 0.0201-0.0312 0.0312l0.1562 0.1562 0.7188 0.75c0.25026-0.20248 0.50108-0.38694 0.78125-0.5625 1.8568-1.6136 2.9972-3.3221 4.4062-5.5938 3.4098-5.7337 4.1358-12.567 2.8438-19.031-0.17481-2.8282-0.72478-5.4704-1.6562-7.9062l1.0625-0.5312c-0.93797-2.2763-2.9273-3.9102-3.9062-6.1562-0.44784-1.4862-1.9641-1.7294-3.125-2.2188-0.4242-0.40832-0.86955-0.78448-1.3125-1.1562-0.0853-0.24731-0.0967-0.54827-0.0625-0.90625-3.7289-2.8372-8.3318-4.6456-12.969-5.0312-0.5363-0.1788-1.0819-0.23354-1.625-0.21875z"/>
    <path d="m481.6 786.08c0.0309 0.0308 0.0627 0.063 0.0937 0.0937l-1.0938 0.9375 1-1.0312z"/>
   </g>
   <path d="m474.36 767.82c0 7.4141 2.4523 13.535 7.3568 18.363 4.9045 4.8281 10.72 7.2421 17.446 7.2422 7.4396-5e-5 13.592-2.4268 18.459-7.2804 4.8663-4.8536 7.2994-10.987 7.2995-18.402-3e-5 -7.3632-2.4077-13.478-7.223-18.344-4.8154-4.8663-10.879-7.2995-18.191-7.2995-7.3122 0-13.331 2.4204-18.058 7.2612-4.7262 4.8408-7.0893 10.994-7.0893 18.459z" fill="#1e0e05"/>
   <g fill="#bb803e" stroke-width=".7" style="text-indent:0;text-transform:none">
    <path d="m497.74 772.41 1.9688-1.4375 0.0937 0.1875-2.0625 1.25z"/>
    <path d="m500.27 770.91v-0.3438l0.5-0.375 0.3438 0.2188-0.8438 0.5z"/>
    <path d="m499.77 770.63-1.2812-1.8438 1.3125 0.8125v0.0312l0.0625 0.9375-0.0937 0.0625z"/>
    <path d="m500.27 770.32 0.0312-0.4375 0.3125 0.2188-0.3438 0.2188z"/>
   </g>
   <g fill="#ae5919">
    <path d="m497.74 772.41 1.9688-1.4375 0.0937 0.1875-2.0625 1.25z"/>
    <path d="m500.27 770.91v-0.3438l0.5-0.375 0.3438 0.2188-0.8438 0.5z"/>
    <path d="m499.77 770.63-1.2812-1.8438 1.3125 0.8125v0.0312l0.0625 0.9375-0.0937 0.0625z"/>
    <path d="m500.27 770.32 0.0312-0.4375 0.3125 0.2188-0.3438 0.2188z"/>
   </g>
   <path d="m500.74 795.11c-1.5195 0.13854-2.9158-0.79608-4.4505-0.7167-3.434 0.23831-6.5041-1.1172-9.7427-1.823-3.0437-0.61842-5.2661-2.4792-7.0637-4.8384l1.0864-0.59 2.4484-2.1638 2.824-2.8775 3.3911-3.1127 2.6849-1.8176 3.2321-3.1225 0.8625-0.8433 0.1816-0.0563 0.4081-0.245 1.6689-1.1742 0.8709 4.2967-0.1087-1.026-0.354-2.8218 1.1911 1.7928 2.5344 4.0063 1.3106 1.051 0.9223 1.6718 2.9096 1.9049 1.7728 3.5111 3.0348 1.6671 0.9109 1.3579c-0.0349 0.0372-0.0773 0.072-0.11117 0.10976-0.81803 2.4962-4.8791 1.1366-6.2185 3.6566-2.0464-0.40681-4.2073 1.2532-6.1964 2.2028z" fill="#bb803e" stroke-width=".7" style="text-indent:0;text-transform:none"/>
   <path d="m500.75 795.36c-2.1098 0.0458-4.7276 0.89193-6.463-0.44175-2.0267 0.83386-4.2275-0.3554-6.3759-0.9583-3.3781-1.3218-6.5166-3.3086-9.1525-5.8146l1.6718-0.9223c0.32208 0.34526 0.6575 0.71771 0.96153 1.0356 0.65738 1.4974 1.547 1.7397 2.9208 1.5249 1.1318 2.0808 2.8123 0.59113 4.6676 2.0748 2.4444 1.2278 5.2655 2.1973 7.8932 1.4449 1.0023 0.0213 1.6747 0.82141 2.8685 0.68049 3.2925-1.2295 6.999-0.78845 9.8442-3.2057 1.5277-0.10528 2.6331-0.83282 3.604-1.7855l0.6702 0.9808c-1.3889 1.0709-2.5905 2.366-4.4552 2.9426-2.26 0.689-4.3763 2.0747-6.8242 1.5316 0.66109 1.0675-1.3817 0.61606-1.8308 0.91247z" fill="#1e0e05"/>
   <path d="m496.85 786.72c-0.9578-0.11148-0.41169-1.8382-1.4402-1.538-3.6264 0.25989-7.2439-0.60511-9.9005-2.7477l0.3335-0.3294 3.3911-3.1127 2.6849-1.8176 3.2321-3.1225 0.8625-0.8433 0.1816-0.0563 0.4081-0.245 1.6689-1.1742 0.8709 4.2967-0.1087-1.026-0.354-2.8218 1.1911 1.7928 2.5344 4.0063 1.3106 1.051 0.9223 1.6718 2.4958 1.6461c-3.277 1.732-6.8347 3.072-10.284 4.3698z" fill="#ae5919"/>
   <path d="m498.46 781.39c-3.6485-0.0941-7.7576 0.55822-10.538-1.1782l1.3157-1.2206 2.6849-1.8176 3.2321-3.1225 0.8625-0.8433 0.0309-4e-3 1.9784-1.9104 0.1182 0.1731-1.8884 1.6458 0.3504-0.2056 1.6689-1.1742 0.8709 4.2967-0.1087-1.026-0.354-2.8218 1.1911 1.7928 2.5344 4.0063 1.3106 1.051 0.3365 0.6164c-1.4392 0.51053-2.9695 0.86912-4.723 1.213-0.29521 0.17225-0.58636 0.35595-0.87388 0.5294z" fill="#ba6422"/>
   <path d="m516.06 790.14-2.2214-2.3913-3.2957-2.4752-1.6197-1.6917-2.1886-1.9506-2.374-2.3578-1.4024-1.8675-2.3777-2.229-0.8929-0.8596-0.0268-0.1221 1.0562-0.8721 0.5554 0.1979-0.4706-0.2485 0.4347-0.3515 2.5292-1.7398 5.5266-3.6785 1.3872-1.8407 2.3216-1.3742 3.8148-2.1504 1.5746-2.2979 2.0707-1.3511c1.2827 2.344 2.2804 4.8369 2.8267 7.4737 1.0446 3.2147 0.0145 6.7441 1.3704 9.8735-0.46572 3.0165-2.426 5.6076-3.5241 8.4217-0.75001 2.7642-3.3879 4.0764-5.0741 5.8828z" fill="#bb803e" stroke-width=".7" style="text-indent:0;text-transform:none"/>
   <path d="m516.81 790.93-0.7067-0.7405-0.1623-0.1563c0.8042-1.0204 1.4993-2.2002 2.3293-3.2317 1.9343-0.74012 1.6047-3.4594 3.0497-4.0299 0.38312-2.5514 0.72806-5.3205 2.4167-7.3464 0.14471-1.6847-1.4464-3.6696 0.14741-5.1518 0.0979 0.16905 0.1558 0.22611 0.18247 0.24786-0.0399-0.22322-0.689-1.6089-1.077-1.843 0.17245-2.5077-0.95721-4.8158-1.6645-7.2812 0.0807-1.209-0.23159-2.1685-0.72523-3.0082l1.3986-0.9154c4.2743 8.4096 4.9495 19.034 0.022 27.32-1.4091 2.2717-2.5489 3.9622-4.4057 5.5759-0.28017 0.17556-0.55435 0.35834-0.80461 0.56082z" fill="#1e0e05"/>
   <path d="m509.39 784.09-0.4632-0.5061-2.1886-1.9506-2.374-2.3578-1.4024-1.8675-2.3777-2.229-0.8929-0.8596-0.0268-0.1221 1.0562-0.8721 0.5554 0.1979-0.4706-0.2485 0.4347-0.3515 2.5292-1.7398 5.5266-3.6785 1.3872-1.8407 2.3216-1.3742 2.7898-1.5731c2.0426 4.7386 2.0124 10.419 0.39525 15.335-1.8732 2.4176-4.227 4.362-6.7997 6.0381z" fill="#ae5919"/>
   <path d="m506.57 781.47-2.2117-2.2015-1.4024-1.8675-2.3777-2.229-0.8929-0.8596-0.0268-0.1221 1.0562-0.8721 0.5554 0.1979-0.4706-0.2485 0.4347-0.3515 2.5292-1.7398 5.5266-3.6785 1.3872-1.8407 0.1697-0.1013c0.6085 0.8477 1.2292 1.6979 1.8753 2.5634 1.4025 3.2092-0.16432 6.628-1.8062 10.124-1.4124 1.4458-2.8207 2.4474-4.346 3.227z" fill="#ba6422"/>
   <path d="m471.92 762.61c-1.5398 2.7868-1.3032 5.9708-1.941 9.0216-1.3221 2.9919-0.18758 6.2376 0.96071 9.1051 1.0411 2.9265 1.7135 6.1172 3.8707 8.514 0.49906 0.53967 1.0265 1.0811 1.5467 1.6058l3.3648-2.8396 2.2375-2.2975 2.877-2.7298 3.245-3.2291 2.098-2.4904 3.1505-3.0797 1.4129-1.4072 0.0167-0.0678 0.0838-0.3392 0.5882-1.7981-2.7143-0.9585-2.9239-0.7512-4.6557-1.8988-3.6258-0.8814-1.6289-0.6903-2.4369-1.1491-5.5261-1.6388z" fill="#bb803e" stroke-width=".7" style="text-indent:0;text-transform:none"/>
   <path d="m471.06 762.36c-0.99507 2.294-1.6584 4.7284-1.929 7.2251-0.0449 2.8898-0.33725 5.9172 0.42105 8.8422 0.85382 4.7831 2.8935 9.4237 5.9513 13.203l0.1014-0.1189 0.9671-0.8263c-0.5044-0.49582-0.97179-1.0443-1.3943-1.6401 0.86685-2.1745-1.4762-2.5408-1.5585-4.6462-1.6515-1.9536-1.9983-3.9381-1.763-6.2658-1.0799-1.1055-1.7235-3.8354-0.53247-3.788 0.0936-2.4652-0.98043-4.9156 7e-3 -7.3689 0.38627-1.065 0.96701-2.5482 1.5818-4.0718l-1.7539-0.5341-0.0983-0.01z" fill="#1e0e05"/>
   <path d="m479.38 765.16c-0.26122 0.5573-0.46494 1.163-0.62554 1.7745-0.84975 4.5148-2.2719 9.1368-0.2034 13.467 0.64619 2.0273 1.8357 3.8436 3.384 5.3563l0.0236-0.0373 2.877-2.7298 3.245-3.2291 2.098-2.4904 3.1505-3.0797 1.4129-1.4072 0.0167-0.0678 0.0838-0.3392 0.5882-1.7981-2.7143-0.9585-2.9239-0.7512-4.6557-1.8988-3.6258-0.8815-1.6289-0.6903-0.5023-0.2393z" fill="#ae5919"/>
   <g transform="matrix(.97558 -.21963 .21963 .97558 223.47 280.92)">
    <path d="m146.03 530.41c-0.51229 0.59191-0.93496 1.3209-1.2188 2.2188-1.8696 1.9566-2.1726 4.7065-1.4375 7.5938 3e-3 0.0106-3e-3 0.0208 0 0.0312-0.12145 1.8663 0.60883 4.3083 1.9062 6.625l3.3125-2.0938 2.5938-1.9688 3.75-2.3125 1.6875-1.0625 0.0312-0.0625 0.0937-0.1562 1.25-0.625v-0.0312l0.0625-0.9375-0.0937-0.0625-0.9062 1.0625 0.7188-1.1875-2.4375-1.5312-2.6875-1.375-4.125-2.875-2.5-1.25z" fill="#ba6422"/>
   </g>
   <path d="m501.43 771.61-0.034-0.0281-0.3009-0.1908 0.6083-0.5295-0.2399 0.1172-0.3834 0.2567-0.1184 0.0742-0.5336-0.3254-0.1223-2.2486-0.3147-6.5311-0.3681-2.1936-0.0649-2.6309-0.0992-4.2915-0.2978-4.398-0.4869-5.3844c2.8291 0.12041 5.709-0.12954 8.424 0.75884 2.6539 0.64186 4.8851 2.1105 7.3008 3.4413 1.8391 1.9018 3.4769 3.9985 5.4484 5.723 1.0018 1.5969 1.9052 3.2916 2.6805 5.0162l-1.2274 0.6205-3.2814 2.7646-4.6718 2.0194-3.8222 2.6911-2.9346 1.4755-3.6637 2.7072-1.4966 1.0859z" fill="#bb803e" stroke-width=".7" style="text-indent:0;text-transform:none"/>
   <path d="m522.55 758.22c-0.60941-0.92846-1.3476-1.8179-1.9672-2.8245 0.9028-0.13141-0.97228-1.8446-1.2744-1.8238-1.733-2.1724-2.5922-4.4912-5.2881-5.3617-1.7666-1.2759-2.3116-2.9409-4.6573-2.7225-2.1683-1.7084-4.7454-1.4662-6.9728-1.338-1.2263-0.22352-2.4504-0.19895-3.6532-0.11926l-0.1407-1.462-0.0168-0.5007c1.4077-0.27253 2.8835-0.67226 4.3136-0.19547 4.6369 0.38568 9.2192 2.1953 12.948 5.0325-0.27392 2.8638 3.7488 1.701 4.524 4.2737 0.97895 2.246 2.951 3.8794 3.889 6.1557l-1.7041 0.8861z" fill="#1e0e05"/>
   <path d="m501.43 771.61-0.034-0.0281-0.3009-0.1908 0.6083-0.5295-0.2399 0.1172-0.3834 0.2567-0.1184 0.0742-0.5336-0.3254-0.1223-2.2486-0.3147-6.5311-0.3681-2.1936-0.0649-2.6309-0.0992-4.2915-0.1216-1.5894c1.0504 0.0115 2.1279 0.14386 3.2477 0.47224 4.1886-1.2108 6.6786 1.6943 10.249 3.4087 2.1938 1.7989 3.698 4.0356 4.6433 6.4912l-4.1298 1.7789-3.8222 2.6911-2.9346 1.4755-3.6637 2.7072-1.4966 1.0859z" fill="#ae5919"/>
   <g fill="#ba6422">
    <path d="m500.52 772.3-0.0329-0.3422 0.4618-0.4212 0.3631 0.1848-0.792 0.5785z"/>
    <path d="m500.46 771.71-0.0109-0.4385 0.332 0.1878-0.3212 0.2507z"/>
    <path d="m501.43 771.61-0.034-0.0281-0.3009-0.1908 0.6083-0.5295-0.2399 0.1172-0.3834 0.2567-0.1184 0.0742-0.5336-0.3254-0.1223-2.2486-0.3147-6.5311-0.3681-2.1936-0.0649-2.6309-0.0373-1.6917c6.4098-1.8225 9.3977 2.9088 12.651 8.797l-2.6468 1.8559-2.9346 1.4755-3.6637 2.7073-1.4966 1.0859z"/>
   </g>
   <path d="m500.16 771.66-2.3468-1.19-2.6491-1.4523-5.6993-1.9733-1.9754-1.417-3.1952-0.272-3.1225-2.128-4.3489-1.7125-1.5968-0.565c0.89896-2.1199 1.9299-4.1786 3.2054-6.0841 2.0994-2.2882 3.3983-5.5988 6.6623-6.4637 3.3833-0.91202 5.9097-3.958 9.6178-3.8603 0.2641 0.0115 0.53199 0.0125 0.79662 0.0128l0.6978 3.1127 0.7583 6.2151 0.5379 2.7608 0.8018 3.5067 0.3699 4.4436 0.5554 3.2023 0.9309 3.8642z" fill="#bb803e" stroke-width=".7" style="text-indent:0;text-transform:none"/>
   <path d="m475.53 761.05-1.4934-0.5205c0.84621-2.5275 2.0804-4.9297 3.7238-7.0687 0.41146-0.62233 2.7593-3.5073 1.9031-2.0963 2.025-2 5.0284-2.9088 7.1798-4.3346 1.0056-2.7076 4.2385-2.7554 6.6332-3.5037 0.59908 0.1693 1.2008 0.15398 1.8197 0.0476l0.3996 1.833c-0.50485 0.0875-0.99899 0.16405-1.5118 0.24546-3.4658-0.21707-5.7107 1.9093-8.5983 3.3556-3.205 2.4651-6.1812 5.3832-7.9973 9.0595-0.78636 0.90544-1.4897 1.8947-2.0584 2.9826z" fill="#1e0e05"/>
   <path d="m500.16 771.66-2.3468-1.19-2.6491-1.4523-5.6993-1.9733-1.9754-1.417-3.1952-0.272-2.104-1.4252c1.1397-2.4297 2.9149-4.6282 5.0722-6.2992 2.9822-2.1285 6.0466-4.218 9.566-4.8357l0.1358 1.0871 0.5379 2.7608 0.8018 3.5067 0.3699 4.4436 0.5554 3.2023 0.9309 3.8642z" fill="#ae5919"/>
   <path d="m500.16 771.66-2.3468-1.19-2.6491-1.4523-5.6993-1.9733-1.9754-1.417-1.0036-0.1019c1.8001-4.6625 5.6548-9.0271 10.964-8.3009 0.0321-7e-3 0.0601-0.0105 0.0922-0.0169 0.031-0.0148 0.0557-0.0333 0.0865-0.0476l0.6753 2.9897 0.3699 4.4436 0.5554 3.2023 0.9309 3.8642z" fill="#ba6422"/>
  </g>
  <g transform="matrix(4.7607 0 0 4.7607 -1566.4 -3113.3)">
   <path d="m385.69 737.3c-0.63764 5.5e-4 -1.2236 0.19112-1.7812 0.6875-1.7506 0.14955-3.4598 0.52982-5.0938 1.0938-3.3644 0.46624-6.4172 1.507-9.1875 3.0938l-0.25-0.4688-0.0937-0.125-0.2812-0.4688-0.3438-0.6562c-2.1041 1.8217-3.9407 3.9486-5.5312 6.1875-0.78114 1.1139-1.476 2.2789-2.0625 3.5-5e-3 7e-3 5e-3 0.0243 0 0.0312-0.0158 0.033-0.0468 0.0607-0.0625 0.0937-2.7531 4.1855-4.125 9.1159-4.125 14.75 1e-5 0.85374 0.0303 1.6792 0.0937 2.5l-0.6562 0.0937c0.12497 1.4412 0.34381 2.8793 0.71875 4.2812 0.94022 2.0156 1.1779 4.561 2.75 6.1875 0.15291 0.0623 0.26294 0.11726 0.375 0.1875 0.22423 0.40092 0.44 0.79865 0.6875 1.1875 0.0598 0.6178-0.0199 1.2861 0.71875 1.875 0.1937 0.39896 0.43704 0.75732 0.6875 1.0938 1.7532 2.355 4.7266 3.4126 6.375 5.875 2.3939 1.4008 4.9441 2.4787 7.5625 3.3438 2.4526 0.62776 5.04 1.0184 7.5938 1l0.0625-1.5c0.12232-4e-3 0.25341 5e-3 0.375 0l0.2812 1.375c2.3993-7e-3 4.7452-0.53252 6.9062-1.2188 2.7976-0.63759 5.4168-2.2284 7.5625-4.125 3.0438-2.039 5.5312-4.8057 7.4688-7.9375l-1.25-0.5625-0.0625-0.0312c0.11083-0.19519 0.20715-0.39552 0.3125-0.59375l1.125 0.625 1.125 0.625c0.88883-1.2778 1.6585-2.6389 2.2188-4.0938 0.27887-2.7576 2.3053-4.7127 2.2188-7.5938 0.46604-3.2346 0.34281-6.5163-0.0937-9.7188-0.58674-4.2391-2.4746-8.1873-5.0625-11.562-0.1821-0.28569-0.36233-0.57174-0.5625-0.84375l-0.4375 0.125-1.3125 1.3438-1.5625 1.5938c-9e-3 -0.0115-0.0221-0.0197-0.0312-0.0312l1.4375-2.4375 1.1562-1.9375c-0.74113-0.67104-1.5219-1.3089-2.3125-1.9062-3.5042-2.5445-7.6606-4.1922-11.969-4.6562-1.6086 1.2348-3.7746-0.28289-5.6875-0.28125z" fill="#50260e"/>
   <path d="m408.5 764.94c0-7.5677-2.5031-13.816-7.5092-18.744-5.0062-4.9281-10.942-7.3922-17.808-7.3922-7.5937 5e-5 -13.874 2.4771-18.841 7.4312-4.9671 4.9542-7.4507 11.215-7.4507 18.783 5e-5 7.5158 2.4576 13.757 7.3727 18.724 4.9152 4.9672 11.105 7.4507 18.568 7.4507 7.4638 0 13.608-2.4706 18.432-7.4117 4.8241-4.9411 7.2362-11.222 7.2362-18.841z" fill="#1e0e05"/>
   <path d="m362.46 781.73c0.98325 1.1667 2.6143 1.4588 3.65 2.5942 2.2747 2.5835 5.4111 3.7778 8.2105 5.5525 2.8182 1.843 5.9836 1.9836 9.1739 1.422 0.11375 0.0152 0.21878 0.0105 0.33153 0.0211l0.0823-1.4823-1.0394-3.3003-0.2736-3.0219-0.6369-5.1865-0.6317-3.1802-0.1036-4.4928-0.064-2.7494-2.5309 2.1428 0.6785-0.7581 1.6238-1.682-2.7456-0.136-2.1931 0.0699-4.7539 0.2255-1.587-0.4749-1.8978 0.1976-3.7076-0.6183-2.698 0.1822-3.6831 0.3877c0.0512 0.46244 0.088 0.92127 0.0663 1.3681-1.173 2.3503 2.6653 4.2822 1.8463 7.016 1.7414 1.1493 2.136 3.8299 2.8831 5.9035z" fill="#bb803e" stroke-width=".7" style="text-indent:0;text-transform:none"/>
   <path d="m362.25 782.44c1.7532 2.355 4.7158 3.4059 6.3642 5.8683 2.3939 1.4008 4.9659 2.4885 7.5843 3.3535 2.4526 0.62776 5.0273 1.0094 7.5811 0.99092l0.1035-2.3264c-1.6679-0.0954-2.8134 1.0407-4.5178 0.63517-1.4615-0.87953-3.9409-0.96445-4.7439-1.556-0.7265-2.1036-4.0081-1.5502-4.7645-2.7621-0.64518-1.7094-3.6464-2.0789-3.947-3.3907-0.41035-1.2274-2.1989-0.51556-2.8689-2.0909-1.2277-1.4585-0.0378-3.6091-2.0241-4.6324-1.445-0.49532-0.96886-1.2619-0.50825-1.7378-1.4136-1.3146-0.26162-3.938-2.5596-4.4573-0.89749-1.4514 1.4804-1.0246 0.6772-2.9645l-0.019-0.0247-1.6291 0.1882-0.6802 0.0894c0.12497 1.4412 0.35746 2.8834 0.7324 4.2853 0.94022 2.0156 1.1642 4.5476 2.7363 6.1741 1.8793 0.76629 0.4222 2.1666 1.8016 3.2662 0.1937 0.39896 0.43136 0.75552 0.68182 1.092z" fill="#1e0e05"/>
   <path d="m370.66 776.97c0.69372 0.59379 1.5284-0.8939 1.9816 0.0139 2.4868 3.104 6.011 5.2737 9.7882 5.2462l-0.4715-3.8946-0.6317-3.1802-0.1036-4.4928-0.064-2.7494-2.5309 2.1428 0.6785-0.7581 1.6238-1.682-2.7456-0.136-2.1931 0.0699-4.7539 0.2255-1.587-0.4749-1.8978 0.1976-0.5887-0.0992c0.90402 3.2635 2.2257 6.457 3.4956 9.5715z" fill="#ae5919"/>
   <path d="m373.89 773.69c2.5577 0.37173 4.14 3.1704 6.8125 3.6315 0.35591 0.0638 0.70898 0.12969 1.0708 0.16224l-0.4528-2.3323-0.1036-4.4928-0.064-2.7494-2.5309 2.1428 0.6785-0.7581 1.6238-1.682-2.7456-0.136-2.1931 0.0699-4.3728 0.2084c0.70094 2.0586 1.6099 4.0464 2.2772 5.9358z" fill="#c06926" opacity=".694"/>
   <path d="m360.37 767.07 1.6683-0.2934 3.8358-1.3162 2.3344-0.2338 2.9601-0.0839 3.3288-0.2547 2.2787-0.4968 3.2443-0.1626 2.0521-0.111-0.4204-4e-3 1.0117-0.1323 0.9695-0.0862-1.7981-3.2177-1.7253-2.5573-3.7961-5.4315-0.6273-2.2288-1.639-2.0966-2.7579-3.4194-2.0035-3.3636c-0.91708 0.76549-1.7652 1.5797-2.569 2.4778-2.5169 2.2563-3.3972 5.826-6.1406 7.8522-1.111 2.8428-0.7159 6.0678-1.1784 9.053-0.58379 2.1874 0.3032 4.1787 0.97214 6.1067z" fill="#bb803e" stroke-width=".7" style="text-indent:0;text-transform:none"/>
   <path d="m359.08 767.32 1.9524-0.3721c-0.86074-1.4199-0.63368-2.7098-0.78998-4.9644-0.55927-2.2422 0.45853-4.5415 0.58678-6.8819-0.15497-1.6688-0.61069-3.0587 1.2926-3.3515 1.0286-1.6921 3.177-3.9229 3.2932-5.1633-1.4206 0.4235 1.8458-0.91106 1.513-1.8349 0.8376-0.90897 1.9419-1.562 2.8627-2.3357l-0.7868-1.3151-0.3378-0.6489c-2.1041 1.8217-3.9585 3.951-5.549 6.1899-4.1661 5.9406-5.5835 13.63-4.0371 20.678z" fill="#1e0e05"/>
   <path d="m369.49 765.17 1.6797-0.0285 3.3288-0.2547 2.2787-0.4968 3.2443-0.1626 2.0521-0.111-0.4204-4e-3 1.0117-0.1323 0.9695-0.0862-1.7981-3.2177-1.7253-2.5573-3.7961-5.4315-0.6273-2.2288-1.639-2.0966-0.9116-1.1328c-2.8045 2.7066-4.8102 6.3358-5.7782 10.093 0.24425 2.7294 1.0344 5.3294 2.1313 7.848z" fill="#ae5919"/>
   <path d="m373.95 764.93 0.551-0.046 2.2787-0.4968 3.2443-0.1626 2.0521-0.111-0.4204-4e-3 1.0117-0.1323 0.9695-0.0862-1.7981-3.2177-1.7253-2.5573-3.7961-5.4315-0.3952-1.4648c-1.5324 1.5014-2.7567 3.3354-3.418 5.3456-0.75797 2.8956 0.1099 5.7062 1.4459 8.3643z" fill="#c06926" opacity=".694"/>
   <path d="m406.56 778.69c1.8436-2.3313 2.3387-5.314 3.5625-8 1.9469-2.6284 1.553-6.0441 1.0625-9.0938-0.37298-3.0837-0.32813-6.3442-1.9062-9.1562-1.208-2.0862-2.5486-4.1411-4.0625-6.0312l-3.9375 3.9688-2.1875 2.5312-2.4375 2.0938-3.0938 3.3438-2.0312 2.625-2.8438 3.25-2.75 2.4688 0.7812 0.5 0.125 0.0625 0.6562 0.4062 2.7188 1.375 4.9688 3.3438 2.4688 1.1875 2.4688 1.0312 3.2812 2.375 3.1562 1.7188z" fill="#bb803e" stroke-width=".7" style="text-indent:0;text-transform:none"/>
   <path d="m407.68 779.31c0.88883-1.2778 1.6585-2.6389 2.2188-4.0938 0.27887-2.7576 2.3053-4.7127 2.2188-7.5938 0.46604-3.2346 0.34286-6.5163-0.0937-9.7188-0.58674-4.2391-2.4746-8.1873-5.0625-11.562-0.1821-0.28569-0.36233-0.57174-0.5625-0.84375l-0.4375 0.125-1.3125 1.3438c0.29947 0.38008 0.59087 0.74975 0.90625 1.125 1.3341 2.4657 4.1049 4.8839 3.8438 7.5 2.0258 1.4753-0.68242 4.5691 1.4375 6.6875-0.0388 1.5805-0.77922 3.2542 0.0625 5-0.18488 2.0839-1.9704 2.8076-2.3438 5.3438-0.84838 1.9635-0.93273 4.5569-2.8125 5.625l1.9375 1.0625z" fill="#1e0e05"/>
   <path d="m398.62 773.97c0.0427-0.07 0.0839-0.14734 0.125-0.21875 1.8989-3.9142 4.3448-7.7787 3.5312-12.25-0.12962-3.018-1.5343-5.8945-3.625-8.2188l-2 1.7188-3.0938 3.3438-2.0312 2.625-2.8438 3.25-2.75 2.4688 0.7812 0.5 0.125 0.0625 0.6562 0.4062 2.7188 1.375 4.9688 3.3438 2.4688 1.1875 0.9688 0.4062z" fill="#ae5919"/>
   <path d="m394.4 771.84c2.5728-3.1338 3.7613-7.5668 2.8438-11.531-0.42633-1.4033-1.1259-2.6757-2-3.7812l-1.6875 1.8125-2.0312 2.625-2.8438 3.25-2.75 2.4688 0.7812 0.5 0.125 0.0625 0.6562 0.4062 2.7188 1.375 4.1875 2.8125z" fill="#c06926" opacity=".694"/>
   <path d="m384.93 766.8-0.0867-2.7237 0.0626 0.2296 0.0761 0.4981 0.231 2.0507 0.9901-1.0649 1.9515-2.2665 4.2659-4.9806 1.7187-1.4036 2.1029-1.0702 2.1311-3.2468 4.3877-3.7209 2.1917-3.7736c-1.3961-1.4104-2.789-2.7911-4.5533-3.7273-2.3035-1.466-4.9285-2.0785-7.5629-2.895-2.6456-5e-3 -5.3164 0.28944-7.9262 0.066-3.3934 0.71062-6.7356 1.8014-9.7845 3.4554l0.2344 2.407 1.7298 3.1353 2.4584 2.7966 0.8286 5.1668 1.9871 2.2529 1.2759 4.3731 1.2903 4.4415z" fill="#bb803e" stroke-width=".7" style="text-indent:0;text-transform:none"/>
   <path d="m375.22 743.19c0.32708-0.24536 0.607-0.52096 0.85254-0.83604 2.3103-0.71952 4.6374-1.9728 7.1979-2.2407 1.7148-0.42574 2.9096-1.405 4.6823-0.48401 1.7335 0.35528 3.4991 0.12081 4.342-0.81237 0.30564 2.6482 3.5008 0.38561 4.5317 1.7897 0.27394 1.1187 3.116 1.8357 3.3218 1.6726 1.9884 0.86982 2.8624 2.5599 4.343 3.8143l1.1596-1.9573c-0.74113-0.67104-1.5055-1.2908-2.296-1.8881-3.5042-2.5445-7.6793-4.186-11.987-4.6501-2.1448 1.6464-5.2428-1.6005-7.4735 0.38503-3.1632 0.27024-6.1528 1.2824-8.9083 2.8l0.2344 2.407z" fill="#50260e"/>
   <path d="m384.93 766.8-0.0867-2.7237 0.0626 0.2296 0.0761 0.4981 0.231 2.0507 0.9901-1.0649 1.9515-2.2665 4.2659-4.9806 1.7187-1.4036 2.1029-1.0702 2.1311-3.2468 0.4457-0.3935c-0.45756-0.40737-0.98035-0.78174-1.5377-1.1335-1.7628-3.7337-5.3839-3.6922-8.8375-5.1548-3.9143-0.63761-7.5785 0.36598-10.702 2.3488l1.8073 2.0765 0.8286 5.1668 1.9871 2.2529 1.2759 4.3731 1.2903 4.4415z" fill="#ae5919"/>
   <path d="m384.93 766.8-0.0867-2.7237 0.0626 0.2296 0.0761 0.4981 0.231 2.0507 0.9901-1.0649 1.9515-2.2665 4.2659-4.9806 1.7187-1.4036 1.9611-0.9976c-1.1934-1.5503-2.672-2.8776-4.3675-3.7949-3.7588-2.3249-8.2619-1.7242-11.822 0.48483l0.4667 2.9009 1.9871 2.2529 1.2759 4.3731 1.2903 4.4415z" fill="#c06926" opacity=".694"/>
   <path d="m380.26 763.51 0.4403 2.7738 0.5928 2.9337 1.4043 6.3978 0.0654 2.2397 0.6144 2.5529 0.56 3.7832-0.1362 4.6668 0.4165 2.198c0.92516-0.0145 1.8429-0.076 2.7611-0.17179 3.0038-0.78759 6.5378-0.38978 8.8272-2.8718 2.3867-2.5656 6.26-3.3768 7.9056-6.7011 0.42885-0.90506 0.94018-1.7643 1.4691-2.622l-1.6208-0.7201-4.7077-2.3565-2.5104-2.2167-4.1766-1.8187-2.4993-2.6853-4.0576-1.5658-3.5964-2.5551-1.7517-1.2609z" fill="#bb803e" stroke-width=".7" style="text-indent:0;text-transform:none"/>
   <path d="m384.06 790.25 0.4463 2.2613c2.3993-7e-3 4.7507-0.512 6.9118-1.1982 2.7976-0.63759 5.3984-2.2249 7.544-4.1215 3.0438-2.039 5.5292-4.8301 7.4667-7.9619l-1.9243-0.8398c-1.769 1.6961-1.596 4.5273-4.1619 5.4336-1.8228 0.83581-2.8256 2.125-4.9733 3.2825-1.1364 2.7539-4.3884 1.5151-6.6366 2.7677 1.1642-0.46333 3.1072-0.76059 0.80409-0.16215-1.7928 0.56324-3.618 0.54036-5.4769 0.53846z" fill="#1e0e05"/>
   <path d="m380.26 763.51 0.4403 2.7738 0.5928 2.9337 1.4043 6.3978 0.0654 2.2397 0.6144 2.5529 0.1599 1.1604c1.434-0.17682 2.848-0.53741 4.1893-1.0755 3.5535-1.5901 7.1183-3.2748 9.2884-6.4869l-0.6732-0.61-4.1766-1.8187-2.4993-2.6853-4.0576-1.5658-3.5964-2.5551-1.7517-1.2609z" fill="#ae5919"/>
   <path d="m380.26 763.51 0.4403 2.7738 0.5928 2.9337 1.4043 6.3978 0.0439 1.3077c3.808-0.18681 7.497-2.1529 10.104-5.0483l-0.6806-0.2975-2.4993-2.6853-4.0576-1.5658-3.5964-2.5551-1.7517-1.2609z" fill="#c06926" opacity=".694"/>
  </g>
  <g transform="matrix(4.7607 0 0 4.7607 -1845.3 -3333.2)">
   <path d="m446.9 714.22c-7.6527 0.58782-15.083 5.819-16.929 13.467-4.0325 10.864 3.8958 24.256 15.579 25.056 6.5762 0.97066 13.739-1.7749 17.427-7.0707 8.0387-9.2126 4.1156-26.271-7.8922-30.102-2.6377-1.0203-5.4119-1.3025-8.1856-1.3496zm-2.1124 6.2492c-0.053 3.3259 2.7587 7.8239 0.73347 10.386-3.634 1.41-8.35 4.7218-11.178 5.0757-0.77898-2.8779-0.45794-5.4605 0.93885-8.0682 0.21028-2.1004 2.2151-3.2379 2.9046-5.0463 1.9381-1.4453 4.1643-2.3244 6.4546-2.9632l0.1467 0.6161zm7.8629-0.3521c4.6925 1.5484 9.2762 5.1518 9.1831 10.65 0.28605 1.5025 1.1114 5.3299-1.643 3.3153-2.7874-2.0946-10.016-1.2326-8.0976-6.3079 0.19286-2.4103-0.0894-5.739 0.55744-7.6575zm-3.286 16.489c2.2575 2.6772 7.8412 4.6244 8.3323 7.6868-2.622 2.5219-6.1354 3.4924-9.7992 3.6087-2.2591 0.64252-4.5725-1.4629-6.7186-1.4376-0.56046-2.2882 3.9726-4.677 5.1886-6.9248 1.0118-0.62139 1.9704-2.8608 2.997-2.9331z" fill="#1e0e05"/>
   <path d="m448.01 715.69c-1.0105 0.0453-1.8231 0.78455-2.8383 0.87013-2.277 0.15161-4.172 1.3175-6.2359 2.0717-2.1074 0.73651-3.4603 2.3434-4.4542 4.247-1.6128 1.6016-1.8926 3.8368-2.7968 5.8215-1.2907 1.7425-1.0295 4.007-0.70439 6.0287 0.24727 2.0443 0.21754 4.2059 1.2638 6.0702 0.70274 1.2136 1.4866 2.4004 2.341 3.5219l2.859-2.5068 1.8646-1.3881 2.0303-0.9944 3.6255-3.4805 1.1395-1.4916 2.859-2.0096v-1.9681l-0.0829-1.3881-0.2486-5.055-0.29-1.098-0.0829-5.2207-0.0829-1.9681c-0.0542-0.0184-0.11204-0.0449-0.16574-0.0621zm0.7251 0.2693 0.0414 1.6159-0.0829 4.4749 0.3936 3.6048 0.0207 2.1132 0.1243 4.4956 0.7044-0.4972-0.7044 0.6215-0.0829 1.2016-0.0621 0.4351-0.1243-0.5386v-0.8494l-2.6932 2.4032-1.3259 1.8853-0.8287 0.5594-1.3052 1.3466-4.1434 3.8327-1.6367 1.3259-1.7403 1.2638c0.30976 0.36732 0.63935 0.7126 0.97371 1.0566 1.6426 1.2411 2.8854 3.2446 5.1172 3.4183 2.3153 0.19022 4.3268 1.8744 6.7331 1.3673 2.2394-0.51212 4.6221-0.33167 6.7538-1.2638 1.7106-0.59214 3.1103-1.703 4.62-2.7347 1.0928-1.3718 2.0404-2.8802 3.2319-4.1434 0.13882-0.27717 0.26289-0.54677 0.39363-0.82869l-0.2279-0.145-1.9681-1.4088-2.4654-1.9474-3.3769-2.0924-0.9116-0.3936-4.0606-2.7761c3.3351 1.977 2.7212 1.6473 3.7084 2.196l0.6008 0.4558 1.3259 0.4972 1.1187 0.6008 3.9777 2.3203 1.8853 1.1809 0.808 0.5386c1.0363-2.4723 1.7314-5.0926 1.6988-7.7897 0.21884-2.2302-0.95048-4.3688-0.51793-6.5881-0.73088-1.8868-2.369-3.2856-3.4805-4.9514-0.96836-1.854-3.1684-2.2532-4.5164-3.3976-0.76132-1.5662-3.3276-0.32946-4.4335-1.8646-1.0872 0.37484-2.3463-0.14934-3.5426-0.6008z" fill="#bb803e" stroke-width=".7" style="text-indent:0;text-transform:none"/>
   <path d="m447.2 721.92c-0.59239 0.12468-0.14775 1.1645-0.80797 1.0359-2.9178 0.0584-5.7558 1.2558-7.1682 3.7084-1.2589 2.595-2.8804 5.1569-2.341 8.1212 0.0887 2.0643 1.0669 4.0284 2.5275 5.5936l1.9267-0.953 3.6255-3.4805 1.1395-1.4916 2.859-2.0096v-1.9681l-0.0829-1.3881-0.2486-5.055-0.29-1.098-0.0207-0.7044c-0.37268-0.10343-0.74894-0.20911-1.1187-0.31076zm1.5331 0.4351 0.3522 3.294 0.0207 2.1132 0.1243 4.4956 0.7044-0.4972-0.7044 0.6215-0.0829 1.2016-0.0621 0.4351-0.1243-0.5386v-0.8494l-2.6932 2.4032-1.3259 1.8853-0.8287 0.5594-1.3052 1.3466-2.5482 2.3618c0.53961 0.46785 1.1018 0.88776 1.7195 1.243 2.8511 1.4942 5.7844 2.9562 9.1363 1.7817 2.6654 0.62312 4.136-1.2745 6.3188-2.4654 0.79394-0.72285 1.4341-1.526 1.9267-2.4032l-0.9116-0.7251-3.3769-2.0924-0.9116-0.3936-4.0606-2.7761c3.3351 1.977 2.7212 1.6473 3.7084 2.196l0.6008 0.4558 1.3259 0.4972 1.1187 0.6008 2.7968 1.6367c1.7074-3.5944 1.1876-8.0722-0.68367-11.581-2.8068-2.5598-6.5387-3.7696-10.234-4.8064z" fill="#ae5919"/>
   <path d="m447.62 724.95c-1.2289 1.1941-3.3392 0.89485-4.6614 2.1132-2.2711 2.0655-3.4349 5.4893-2.7347 8.5148 0.36722 1.2087 1.0387 2.2578 1.8853 3.1283l2.859-2.7554 1.1395-1.4916 2.859-2.0096v-1.9681l-0.0829-1.3881-0.1865-3.812c-0.36864-0.10761-0.72842-0.21745-1.0773-0.33148zm1.4502 0.4351 0.0207 0.2693 0.0207 2.1132 0.1243 4.4956 0.7044-0.4972-0.7044 0.6215-0.0829 1.2016-0.0621 0.4351-0.1243-0.5386v-0.8494l-2.6932 2.4032-1.3259 1.8853-0.8287 0.5594-1.3052 1.3466-0.29 0.2693c2.7043 2.4295 6.9868 3.2356 10.338 1.8024 1.7336-0.62519 2.9743-1.8894 3.7498-3.4183l-1.5331-0.953-0.9116-0.3936-4.0606-2.7761c3.3351 1.977 2.7212 1.6473 3.7084 2.196l0.6008 0.4558 1.3259 0.4972 1.0773 0.5801c0.98629-2.2451 0.9926-5.008-0.0207-7.251-1.4661-2.7745-4.7879-3.6098-7.7275-4.4542z" fill="#c06926" opacity=".694"/>
  </g>
  <g transform="matrix(4.7607 0 0 4.7607 -2290.3 -2999.1)">
   <path d="m506.13 666.64c-2.9356-0.0455-5.5745 1.6628-8.5312 1.4688-2.5697 1.0441-4.9995 2.4202-7.2812 3.9688-1.9925 1.5618-3.8644 3.3704-5.4062 5.4062l1.0312 0.8438 0.9375 0.8125c-0.3677 0.60526-0.72223 1.2076-1.0312 1.8438l-1.625-0.6875-2.0312-0.875c-0.75524 1.361-1.3708 2.8085-1.7812 4.3125 1e-3 2.7717-1.8146 4.9236-1.4375 7.7812-0.13697 3.2652 0.30474 6.5142 1.0625 9.6562 1.0119 4.1582 3.3032 7.8722 6.2188 10.969 0.21002 0.26584 0.39838 0.53085 0.625 0.78125l0.4375-0.1562 0.6562-0.8438 0.4062-0.5 0.0937-0.125 1.2813-1.5938c0.0197 0.0214 0.0427 0.0411 0.0625 0.0625l-0.625 0.8438-1.3438 1.875c1.6478 1.744 3.6452 3.1136 5.625 4.2188 2.3802 1.6025 5.3048 2.4222 8.1562 2.6875 3.5702 0.82233 7.2971 0.7005 10.906-0.0312l-0.4375-1.2812-0.375-1.0312c0.42516-0.0572 0.83478-0.11095 1.25-0.1875l1.3438 2.375 0.6562 1.2188c0.95622-0.29191 1.8942-0.62784 2.8125-1 3.9819-1.7026 7.5165-4.4463 10.125-7.9062-0.31284-2.6857 4.0912-3.6916 3.5312-6.625 1.3908-2.8538 2.0454-5.9187 2.1562-9.0625l-0.9688-0.4688 1.4688 0.4375 0.6875 0.25c0.31959-2.7647 0.24714-5.5874-0.0937-8.3125-0.94452-7.1941-5.0971-13.82-11-17.969l-1.1875 1.5938-0.3438 0.4375c-0.27446-0.19244-0.5625-0.38286-0.84375-0.5625l0.1875-0.3125c-1.2188-0.77935-2.5038-1.474-3.8438-2.0312-2.171-0.48313-4.3149-1.8488-6.5625-1.5938-0.31461 0.18357-0.57905 0.23014-0.8125 0.25-0.14462-0.0131-0.29178-0.0202-0.4375-0.0312-0.77577-0.21193-1.2376-1.0779-2.4375-0.78125-0.43435-0.0896-0.86188-0.11851-1.2812-0.125z" fill="#50260e"/>
   <path d="m483.4 692.61c0-7.1993 2.3812-13.143 7.1437-17.831 4.7625-4.6882 10.409-7.0323 16.941-7.0324 7.2241 6e-5 13.199 2.3566 17.924 7.0695 4.7253 4.713 7.088 10.669 7.088 17.869-5e-5 7.1499-2.338 13.088-7.0138 17.813-4.6759 4.7254-10.564 7.088-17.664 7.088-7.1004 0-12.945-2.3503-17.535-7.0509-4.5893-4.7006-6.8839-10.675-6.8839-17.924z" fill="#1e0e05"/>
   <path d="m506.56 667.5c-1.5242 0.0684-2.7499 1.1834-4.2812 1.3125-3.4346 0.2287-6.293 1.9873-9.4062 3.125-3.1788 1.111-5.2196 3.5347-6.7188 6.4062-0.0814 0.0809-0.14167 0.16705-0.21875 0.25l1.125 0.9688 3.25 1.1875 2.5625 1.625 4.5 2.6562 2.9062 1.4375 3.625 2.6562 2.2188 1.625-0.1562-3.3125 0.1875 1 0.3438 2.3125 1.7812-2.0938 1.2812-1.7812 2.7187-3.9062 1.3438-0.9688 1-1.625 2.75-2.5625 1.5-2.25 1.9375-3.1562c-0.39783-0.24126-0.784-0.49175-1.125-0.78125-1.1484-2.3625-5.0193-0.49695-6.6875-2.8125-1.9725 0.68007-4.3382-0.6409-6.4375-1.3125z" fill="#bb803e" stroke-width=".7" style="text-indent:0;text-transform:none"/>
   <path d="m506.13 666.91c-2.9356-0.0455-5.5745 1.6628-8.5312 1.4688-2.5697 1.0441-4.9995 2.4202-7.2812 3.9688-1.9925 1.5618-3.8644 3.3704-5.4062 5.4062l1.7812 1.5c1.0922-1.2641 0.88969-2.8648 2.25-3.9688 1.5881-0.6226 3.1666-2.5365 4.125-2.8125 2.1105 0.70619 3.6719-2.2327 5.0938-2.0938 1.7484 0.53037 3.8706-1.6237 5.0938-1.0625 1.2232 0.42276 1.7489-1.429 3.4062-1 1.9045-0.0844 2.8843 2.1698 4.9062 1.2188 1.2734-0.84373 1.5909 1e-3 1.6875 0.65625 1.9038-0.31946 3.2815 2.1928 5.0938 0.6875 1.6976 0.17309-0.09 1.7981 1.9375 2.3438h0.0312l0.8438-1.4062 0.3438-0.5938c-1.2188-0.77935-2.5038-1.474-3.8438-2.0312-2.171-0.48313-4.3149-1.8488-6.5625-1.5938-1.7529 1.0228-1.975-0.98582-3.6875-0.5625-0.43435-0.0896-0.86188-0.11851-1.2812-0.125z" fill="#1e0e05"/>
   <path d="m505.35 676.91c-0.89357 0.18806-0.22287 1.7565-1.2188 1.5625-3.9765 0.0796-7.8446 1.5511-10.125 4.5625l3.375 2 2.9062 1.4375 3.625 2.6562 2.2188 1.625-0.1562-3.3125 0.1875 1 0.3438 2.3125 1.7812-2.0938 1.2812-1.7812 2.7187-3.9062 1.3438-0.9688 1-1.625 0.4375-0.4062c-3.1383-1.2724-6.4756-2.1711-9.7188-3.0625z" fill="#ae5919"/>
   <path d="m505.97 681.47c-1.8536 1.8012-5.0368 1.3498-7.0312 3.1875-0.2675 0.24328-0.53494 0.48302-0.78125 0.75l2.125 1.0625 3.625 2.6562 2.2188 1.625-0.1562-3.3125 0.1875 1 0.3438 2.3125 1.7812-2.0938 1.2812-1.7812 2.5-3.5938c-2.0593-0.69903-4.1891-1.19-6.0938-1.8125z" fill="#c06926" opacity=".694"/>
   <path d="m522.92 671.14-1.0312 1.3438-1.9375 3.5625-1.5625 1.75-2.125 2.0625-2.2812 2.4375-1.3438 1.9062-2.2812 2.3125-1.4375 1.4688 0.3125-0.2812-0.6562 0.7812-0.6562 0.7188 3.5 1.1562 3 0.7188 6.4688 1.4375 1.9688 1.2188 2.625 0.4375 4.3438 0.6562 3.75 1.125c0.15855-1.184 0.23333-2.3574 0.21875-3.5625 0.33011-3.364-1.4337-6.59-0.78125-9.9375-1.1025-2.8461-3.5733-4.956-5.25-7.4688-1.0481-2.0067-3.0477-2.8749-4.8438-3.8438z" fill="#bb803e" stroke-width=".7" style="text-indent:0;text-transform:none"/>
   <path d="m523.7 670.08-1.1875 1.5938c1.5941 0.46479 2.2985 1.5689 3.9375 3.125 1.9276 1.2746 2.7315 3.6571 4.2188 5.4688 1.2421 1.1252 2.5174 1.8416 1.3125 3.3438 0.38553 1.9424 0.30983 5.0385 1.0625 6.0312 0.76077-1.2722-0.74462 1.919 0.125 2.375-3e-3 1.236-0.37549 2.4637-0.53125 3.6562l1.4688 0.4375 0.6875 0.25c0.31959-2.7647 0.24719-5.5874-0.0937-8.3125-0.94452-7.1941-5.0971-13.82-11-17.969z" fill="#1e0e05"/>
   <path d="m517.48 678.71-1.2188 1.1562-2.2812 2.4375-1.3438 1.9062-2.2812 2.3125-1.4375 1.4688 0.3125-0.2812-0.6562 0.7812-0.6562 0.7188 3.5 1.1562 3 0.7188 6.4688 1.4375 1.9688 1.2188 2.625 0.4375 1.4375 0.2188c0.23775-3.8903-0.73693-7.9207-2.5625-11.344-2.0247-1.8466-4.3644-3.2288-6.875-4.3438z" fill="#ae5919"/>
   <path d="m514.36 681.89-0.375 0.4062-1.3438 1.9062-2.2812 2.3125-1.4375 1.4688 0.3125-0.2812-0.6562 0.7812-0.6562 0.7188 3.5 1.1562 3 0.7188 6.4688 1.4375 1.2812 0.8125c0.11466-2.1423-0.22252-4.3215-1.0938-6.25-1.3984-2.6464-3.9376-4.1314-6.7188-5.1875z" fill="#c06926" opacity=".694"/>
   <path d="m483.39 680.21c-1.5987 2.5056-1.7901 5.523-2.7363 8.3189-1.6715 2.8116-0.93458 6.17-0.13863 9.1546 0.68252 3.0302 0.9672 6.2786 2.8213 8.9169 1.4126 1.9535 2.9538 3.8625 4.6509 5.5901l3.5165-4.3461 1.9207-2.7392 2.2136-2.3292 2.7402-3.6391 1.7557-2.8167 2.501-3.5206 2.4866-2.7339-0.8277-0.4185-0.1307-0.0496-0.6939-0.3379-2.8437-1.0934-5.281-2.8248-2.5761-0.9321-2.5603-0.7766-3.5043-2.0315-3.3137-1.3912z" fill="#bb803e" stroke-width=".7" style="text-indent:0;text-transform:none"/>
   <path d="m482.21 679.7c-0.75524 1.361-1.3835 2.7929-1.794 4.2969 1e-3 2.7717-1.8176 4.9214-1.4405 7.779-0.13697 3.2652 0.31702 6.5176 1.0748 9.6596 1.0119 4.1582 3.2888 7.8955 6.2044 10.992 0.21002 0.26584 0.41822 0.53222 0.64484 0.78262l0.4226-0.1685 1.1701-1.4694c-0.33632-0.34789-0.66357-0.68624-1.0152-1.0277-1.5763-2.3183-4.5772-4.4444-4.5816-7.0734-2.1644-1.2632 0.21746-4.6147-2.1056-6.5081-0.12103-1.5764 0.44657-3.3163-0.56716-4.9681-0.0265-2.0919 1.6767-2.9922 1.7921-5.5531 0.64574-2.0391 0.46774-4.6278 2.23-5.8803l-2.0349-0.8614z" fill="#1e0e05"/>
   <path d="m491.76 684.1c-0.0354 0.0739-0.0686 0.15506-0.10227 0.23025-1.4939 4.086-3.5369 8.1778-2.276 12.544 0.43376 2.9894 2.1218 5.7094 4.4365 7.8106l1.8162-1.912 2.7402-3.6391 1.7557-2.8167 2.501-3.5206 2.4866-2.7339-0.8277-0.4185-0.1307-0.0496-0.6939-0.3379-2.8437-1.0934-5.281-2.8248-2.5761-0.9321-1.0048-0.3063z" fill="#ae5919"/>
   <path d="m496.18 685.79c-2.2432 3.3776-2.9779 7.908-1.6646 11.76 0.56588 1.353 1.3904 2.5483 2.3717 3.5599l1.4958-1.9737 1.7557-2.8167 2.501-3.5206 2.4866-2.7339-0.8277-0.4185-0.1307-0.0496-0.6939-0.3379-2.8437-1.0934-4.4501-2.3752z" fill="#c06926" opacity=".694"/>
   <path d="m506.16 691.32 2.3824 1.3228-0.2292-0.0641-0.4666-0.1902-1.8788-0.8538 0.4061 1.3962 0.9444 2.8379 2.0867 6.2169 0.3231 2.1953-0.1602 2.3541 1.6936 3.4949 0.9429 5.6753 2.1148 3.8173c1.9269-0.47485 3.8266-0.96205 5.5354-1.9962 2.4401-1.2251 4.3126-3.1642 6.365-5.0066 1.3616-2.2683 2.479-4.7119 4.0097-6.8375 1.131-3.2774 1.9093-6.7058 2.0537-10.171l-2.1864-1.0336-3.5787-0.1236-3.6617 0.6755-4.8602-1.9395-2.9533 0.5499-4.4083-1.1483-4.4744-1.1711z" fill="#bb803e" stroke-width=".7" style="text-indent:0;text-transform:none"/>
   <path d="m531.41 695.09c0.0428 0.40663 0.13577 0.78829 0.28026 1.1607-0.56761 2.3522-0.68572 4.9927-1.7693 7.328-0.51429 1.6904-0.28665 3.2184-1.9867 4.2675-1.1943 1.3057-1.8988 2.9416-1.5302 4.1438-2.43-1.0963-2.127 2.8071-3.8611 2.9717-1.1008-0.33879-3.1743 1.7329-3.1399 1.9933-1.7667 1.2606-3.6658 1.1437-5.5022 1.7711l1.0852 1.9995c0.95622-0.29191 1.8804-0.63004 2.7987-1.0022 3.9819-1.7026 7.5329-4.4441 10.141-7.9041-0.31284-2.6857 4.0635-3.6792 3.5036-6.6126 1.3908-2.8538 2.0558-5.9393 2.1667-9.0831l-2.1864-1.0336z" fill="#1e0e05"/>
   <path d="m506.16 691.32 2.3824 1.3228-0.2292-0.0641-0.4666-0.1902-1.8788-0.8538 0.4061 1.3962 0.9444 2.8379 2.0867 6.2169 0.3231 2.1953-0.1602 2.3541 1.6936 3.4949 0.1091 0.5845c0.58443-0.18377 1.174-0.44045 1.7619-0.7384 4.1093 0.40236 5.9314-2.7272 8.9586-4.9413 2.5554-3.0328 3.5738-6.6929 3.4745-10.392l-2.7096 0.486-4.8602-1.9395-2.9533 0.5499-4.4083-1.1483-4.4744-1.1711z" fill="#ae5919"/>
   <path d="m506.16 691.32 2.3824 1.3228-0.2292-0.0641-0.4666-0.1902-1.8788-0.8538 0.4061 1.3962 0.9444 2.8379 2.0867 6.2169 0.3231 2.1953-0.1498 2.1951c1.943-0.22901 3.8409-0.8173 5.4981-1.8021 3.924-2.0337 5.7186-6.2072 5.649-10.397l-2.7295-1.0876-2.9533 0.5499-4.4083-1.1483-4.4744-1.1711z" fill="#c06926" opacity=".694"/>
   <path d="m506.1 689.81-1.7201 2.2201-1.7323 2.4407-3.7014 5.404-1.5876 1.5812-1.44 2.1957-2.3738 2.9985-3.4946 3.0961-1.3168 1.8085c0.64398 0.6644 1.3172 1.2911 2.0157 1.8948 2.6307 1.65 4.7605 4.4981 8.137 4.4672 3.5041-0.0171 6.7473 2.2504 10.297 1.1737 0.95327-0.30713 1.9296-0.52278 2.9169-0.72453l-0.5849-1.6743-1.5058-5.0446-0.1033-3.3474-1.5341-4.2893 0.2459-3.6601-1.637-4.0294-0.6002-4.3707-0.2804-2.14z" fill="#bb803e" stroke-width=".7" style="text-indent:0;text-transform:none"/>
   <path d="m489.21 710.89-1.3425 1.8735c1.6478 1.744 3.6259 3.1119 5.6057 4.2171 2.3802 1.6025 5.3178 2.4112 8.1692 2.6764 3.5702 0.82233 7.3062 0.72275 10.915-9e-3l-0.7055-1.9775c-2.4473-0.12799-4.3924 1.9366-6.8098 0.68704-1.8572-0.75626-3.4834-0.6044-5.7976-1.3772-2.7852 1.0573-4.1089-2.161-6.5612-2.9419 1.1348 0.53128 2.6818 1.7439 0.66873 0.47503-1.638-0.92099-2.871-2.2669-4.1424-3.623z" fill="#50260e"/>
   <path d="m506.1 689.81-1.7201 2.2201-1.7323 2.4407-3.7014 5.404-1.5876 1.5812-1.44 2.1957-0.7362 0.9111c1.1107 0.92408 2.3417 1.7078 3.6523 2.3169 3.5919 1.5012 7.2606 2.9458 11.088 2.3282l-0.0164-0.9082-1.5341-4.2893 0.2459-3.6601-1.637-4.0294-0.6002-4.3707-0.2804-2.14z" fill="#ae5919"/>
   <path d="m506.1 689.81-1.7201 2.2201-1.7323 2.4407-3.7014 5.404-0.923 0.9273c2.7434 2.6475 6.7022 3.99 10.598 3.9079l-0.2491-0.6998 0.2459-3.6601-1.637-4.0294-0.6002-4.3707-0.2804-2.14z" fill="#c06926" opacity=".694"/>
  </g>
 </g>
</svg>
