<?xml version="1.0" encoding="UTF-8"?>
<svg viewBox="0 0 1085 1085" xmlns="http://www.w3.org/2000/svg">
 <defs>
  <radialGradient id="a" cx="89.437" cy="838.8" r="532.46" gradientTransform="matrix(-2.4889 .07329 -.06254 -2.1238 1129 1970.5)" gradientUnits="userSpaceOnUse">
   <stop stop-color="#2f1b0c" offset="0"/>
   <stop stop-color="#ae663b" offset=".5"/>
   <stop stop-color="#2f1b0c" offset="1"/>
  </radialGradient>
 </defs>
 <path d="m21.034 778.16c-12.888 66.594-5.7911 128.02-1.4688 150.91 9.638 51.045 229.37 34.946 309.97 26.062 14.803-10.814 9.2118-33.436 10.125-49.812 104.9-0.87156 133.5-18.373 251.31 49.656 167.89 34.001 374.82 6.3858 489.34-94.268 8.1009-7.2362 4.8038-75.75-0.8243-91.884-351.72 5.3878-706.73 3.9681-1058.4 9.3398z"/>
 <path d="m58.293 178.42c-34.225 57.936 14.69 280.22-27.143 410-29.158 90.458-11.506 218.62-2.8571 235.71 55.969 60.186 334.87-17.098 560 40 272.63 69.144 465.55-71.261 481.43-92.857 2.9428-110.49-19.598-185.15-197.14-174.29-102.05 6.2462-306.21-144-330-175.71-78.422-104.57-18.159-248.8-112.86-290-84.425-0.33543-317.84-4.2442-371.43 47.143z" fill="url(#a)" stroke="#000" stroke-linejoin="round" stroke-width="30"/>
 <path d="m422.58 791.28c10.034-51.406 27.032-101.98 24.138-155.39-4.165-76.85 6.1159-154.99-7.9946-231.15-6.3057-34.038-24.281-65.289-30.29-98.965-7.1637-40.145 51.559-61.894 82.895-40.118 28.51 19.813 33.044 56.771 23.742 87.713-10.48 34.862-27.148 71.602-17.32 108.68 8.8761 33.489 46.119 23.771 70.544 14.94 22.254-8.0463 62.893-5.0072 61.541 30.092-1.2198 31.681-7.7454 68.182 14.798 95.621 16.356 19.908 42.025 47.245 62.976 14.845 15.607-24.136 43.379-46.721 72.673-47.997 30.935-1.3475 40.741 37.051 52.612 59.883 9.8779 18.999 43.438 55.138 55.549 20.083 8.5039-24.614 0.60472-64.788-32.459-51.084-27.838 11.537-31.549 59.412-68.634 51.147-34.405-7.6679-33.938-50.295-44.211-77.376-11.124-29.324-50.12-35.732-78.503-33.89-33.548 2.1779-63.211 32.828-95.608 26.908-34.511-6.3057-21.801-58.572-3.6814-79.12 18.893-21.426 34.401-68.352-0.21744-79.531-30.433-9.8273-71.347-18.824-93.322-41.487-26.627-27.461-14.105-56.501-8.1532-80.062 7.2134-28.557 47.53-46.092 72.179-32.052 34.891 19.873 64.716 50.429 81.884 88.054 10.056 22.039 13.45 54.359 36.078 63.162 3.3553 1.3053 6.6844 2.2743 10.212 2.8045" fill="none" stroke="#000" stroke-linecap="round" stroke-linejoin="round" stroke-width="30"/>
</svg>
