<?xml version="1.0" encoding="UTF-8" standalone="no"?>
<svg
   xmlns:dc="http://purl.org/dc/elements/1.1/"
   xmlns:cc="http://creativecommons.org/ns#"
   xmlns:rdf="http://www.w3.org/1999/02/22-rdf-syntax-ns#"
   xmlns:svg="http://www.w3.org/2000/svg"
   xmlns="http://www.w3.org/2000/svg"
   xmlns:sodipodi="http://sodipodi.sourceforge.net/DTD/sodipodi-0.dtd"
   xmlns:inkscape="http://www.inkscape.org/namespaces/inkscape"
   viewBox="0 0 244.09449 244.36219"
   id="svg2"
   version="1.1"
   inkscape:version="0.91 r13725"
   sodipodi:docname="pop.svg"
   width="244.09448"
   height="244.36218">
  <metadata
     id="metadata10">
    <rdf:RDF>
      <cc:Work
         rdf:about="">
        <dc:format>image/svg+xml</dc:format>
        <dc:type
           rdf:resource="http://purl.org/dc/dcmitype/StillImage" />
        <dc:title></dc:title>
      </cc:Work>
    </rdf:RDF>
  </metadata>
  <defs
     id="defs8" />
  <sodipodi:namedview
     pagecolor="#ffffff"
     bordercolor="#666666"
     borderopacity="1"
     objecttolerance="10"
     gridtolerance="10"
     guidetolerance="10"
     inkscape:pageopacity="0"
     inkscape:pageshadow="2"
     inkscape:window-width="1920"
     inkscape:window-height="1027"
     id="namedview6"
     showgrid="false"
     inkscape:zoom="0.63429569"
     inkscape:cx="380.96556"
     inkscape:cy="84.746595"
     inkscape:window-x="0"
     inkscape:window-y="0"
     inkscape:window-maximized="1"
     inkscape:current-layer="svg2" />
  <path
     d="m 9.5618739,227.40819 c 0,-10.56192 3.8790541,-28.12981 7.4151701,-33.58225 6.037101,-9.30902 21.872573,-21.89346 34.788017,-27.64577 7.181808,-3.19885 13.057862,-6.48005 13.057862,-7.29168 0,-0.81162 -1.301002,-2.70095 -2.891133,-4.19877 -1.890108,-1.78034 -3.542432,-6.97111 -4.772399,-14.99222 -1.595484,-10.40499 -1.51436,-13.2717 0.533654,-18.86738 1.739006,-4.75178 2.013736,-7.99919 0.981795,-11.60248 -0.788206,-2.7521 -1.025862,-5.39642 -0.528097,-5.87636 0.497766,-0.47995 1.132865,-7.265808 1.411336,-15.079899 0.653446,-18.336137 9.434432,-43.911744 19.478953,-56.739124 6.699137,-8.554175 22.377828,-19.419926 33.264368,-23.0518388 6.80098,-2.2692605 15.12544,-2.4507039 16.46641,-0.3590966 0.5367,0.837197 4.35241,1.5221764 8.47951,1.5221764 5.24307,0 8.42567,0.870731 10.56445,2.890308 6.98366,6.594677 21.21891,24.803864 21.21891,27.141927 0,0.53675 1.33145,2.389969 2.95871,4.1184 4.37247,4.643856 11.25144,17.272135 11.25144,20.654411 0,1.618987 1.4411,5.608916 3.20249,8.866678 2.62667,4.85833 2.89524,6.702142 1.49411,10.255206 -0.93961,2.382511 -1.53944,6.074245 -1.33295,8.20377 0.20649,2.129523 -1.24913,6.893174 -3.2347,10.585972 -3.21481,5.97911 -3.4878,7.97255 -2.49293,18.20675 0.61443,6.3213 1.75053,13.0994 2.52467,15.0624 1.44289,3.6587 -1.7758,12.06355 -5.5047,14.37376 -2.26257,1.40184 2.69156,5.07037 10.08084,7.46475 3.03939,0.98485 7.22065,3.06094 9.2917,4.61356 2.07105,1.55262 4.59587,2.82303 5.61079,2.82303 1.01492,0 5.52949,1.76999 10.03237,3.93315 10.2992,4.94799 19.91473,15.31919 22.09362,23.8312 2.92729,11.43322 4.94086,22.95898 5.85284,33.5031 l 0.88866,10.27469 -232.1938027,0 0,-9.03868 z"
     id="path4"
     inkscape:connector-curvature="0" />
</svg>
