<?xml version="1.0" encoding="UTF-8"?>
<svg viewBox="0 0 250 250" xmlns="http://www.w3.org/2000/svg" xmlns:xlink="http://www.w3.org/1999/xlink">
 <defs>
  <linearGradient id="a">
   <stop stop-color="#63efff" offset="0"/>
   <stop stop-color="#003ec3" offset="1"/>
  </linearGradient>
  <linearGradient id="f" x1=".45082" x2=".69672" y1=".23438" y2=".35938" xlink:href="#a" spreadMethod="reflect"/>
  <linearGradient id="e" x1=".43478" x2=".49531" y1=".71875" y2="-.17544" xlink:href="#a"/>
  <linearGradient id="d" x1=".8" x2=".15714" y1=".71094" y2=".88281" xlink:href="#a"/>
  <linearGradient id="c" x1=".45313" x2=".76563" y1=".3125" y2=".30469" xlink:href="#a"/>
  <linearGradient id="b" x1=".52326" x2=".86047" y1=".03906" y2=".95313" xlink:href="#a"/>
 </defs>
 <path d="m63.095 25.215-44.884 50.157 117.82 168.53 93.509-176.55-43.014-50.157-37.404-12.038-65.456 4.0126-20.572 16.05z" fill="url(#f)" fill-rule="evenodd"/>
 <path d="m66.836 135.56 20.572-46.145 24.312 62.195 14.961 40.126 5.6106 42.132-65.456-98.309z" fill="url(#c)" fill-rule="evenodd"/>
 <path d="m136.03 235.88 26.182-144.45 24.312-18.057 31.793 2.0063-82.288 160.5z" fill="url(#d)" fill-rule="evenodd"/>
 <path d="m42.124 63.571 54.015-4.2486h31.793l38.724-4.1305 48.624 14.162-39.054-45.555-37.514-11.92-50.055 5.783-46.534 45.909z" fill="url(#e)" fill-rule="evenodd"/>
 <path d="m148.07 6.2116-65.22 4.0058-20.661 16.023-44.808 50.206 117.74 168.51 93.599-176.52-43.065-50.206-37.589-12.017zm-2.9872 9.8809 32.859 10.415 37.589 43.529-81.899 152.75-103.31-145.81 39.331-43.529 18.172-13.887 57.254-3.4717z" fill-opacity=".25312" fill-rule="evenodd"/>
 <path d="m128.55 77.379 1.8701 128.4-41.144-110.35-13.091 18.057-33.663-38.12 37.403-10.031 48.625 12.038z" fill="url(#b)" fill-rule="evenodd"/>
 <path d="m146.49 7.2471c-11.503 0.64013-50.241 2.2366-61.744 2.8767-41.473 41.927-44.012 46.882-62.781 65.766 0.88281 0.05334-0.26555-0.04248 0.63818 0 37.755 54.3 75.921 111.51 113.68 165.81-38.701-92.92 33.4-81.5-7.1795-164.05 0.75601 0.03709-0.58165-0.44433 0.15955-0.39955-3.3299-30.085 61.428-1.5097 17.231-70.001z" fill="#fff" fill-opacity=".39375" fill-rule="evenodd"/>
</svg>
