<?xml version="1.0" encoding="UTF-8" standalone="no"?>
<svg
   xmlns:dc="http://purl.org/dc/elements/1.1/"
   xmlns:cc="http://creativecommons.org/ns#"
   xmlns:rdf="http://www.w3.org/1999/02/22-rdf-syntax-ns#"
   xmlns:svg="http://www.w3.org/2000/svg"
   xmlns="http://www.w3.org/2000/svg"
   xmlns:xlink="http://www.w3.org/1999/xlink"
   xmlns:sodipodi="http://sodipodi.sourceforge.net/DTD/sodipodi-0.dtd"
   xmlns:inkscape="http://www.inkscape.org/namespaces/inkscape"
   enable-background="new 0 0 44.05 41"
   version="1.1"
   viewBox="0 0 44.05 41"
   xml:space="preserve"
   id="svg2"
   inkscape:version="0.91 r13725"
   sodipodi:docname="shiny4.svg"><metadata
     id="metadata68"><rdf:RDF><cc:Work
         rdf:about=""><dc:format>image/svg+xml</dc:format><dc:type
           rdf:resource="http://purl.org/dc/dcmitype/StillImage" /></cc:Work></rdf:RDF></metadata><defs
     id="defs66" /><sodipodi:namedview
     pagecolor="#ffffff"
     bordercolor="#666666"
     borderopacity="1"
     objecttolerance="10"
     gridtolerance="10"
     guidetolerance="10"
     inkscape:pageopacity="0"
     inkscape:pageshadow="2"
     inkscape:window-width="640"
     inkscape:window-height="480"
     id="namedview64"
     showgrid="false"
     inkscape:zoom="5.7560976"
     inkscape:cx="22.025"
     inkscape:cy="20.5"
     inkscape:window-x="0"
     inkscape:window-y="0"
     inkscape:window-maximized="0"
     inkscape:current-layer="svg2" /><symbol
     id="n"
     viewBox="0 -15.8 28.95 15.8"><path
       d="m26.5-3c0.433 0.633 1.25 1.633 2.45 3-0.333-0.567-0.617-0.967-0.85-1.2-0.033-0.033-0.6-0.783-1.7-2.25-0.3-0.367-0.55-0.7-0.75-1-0.4-0.5-0.633-0.867-0.7-1.1-0.133-0.367-0.467-1.067-1-2.1l-0.3-1c-0.1-0.4-0.35-0.967-0.75-1.7-0.433-0.8-0.733-1.333-0.9-1.6-0.3-0.533-0.967-1.167-2-1.9h-0.8c-2.633-0.433-4.383-0.717-5.25-0.85l-5.95-0.65c-0.8-0.167-1.5-0.25-2.1-0.25-1.1-0.133-1.917-0.2-2.45-0.2-0.567 0-1.717 0.333-3.45 1 0.567 0.066 1.033 0.2 1.4 0.4 0.2 0.1 0.4 0.3 0.6 0.6 0.333 0.5 0.633 0.9 0.9 1.2 0.6 0.733 1.267 1.8 2 3.2l-0.55-2.1c-0.2-0.733-0.35-1.433-0.45-2.1l-0.3-1.65c1.6 0 2.65 0.1 3.15 0.3 0.467 0.167 2.017 0.317 4.65 0.45 0.167 0.033 0.617 0.1 1.35 0.2 0.567 0.1 1.067 0.216 1.5 0.35 1.167 0.367 2.067 0.583 2.7 0.65l1.4 0.05c0.433 0.033 0.733 0.1 0.9 0.2 0.3 0.2 1.1 0.816 2.4 1.85 0.367 0.267 0.633 0.55 0.8 0.85 0.066 0.167 0.167 0.434 0.3 0.8 0 0.033 0.217 0.617 0.65 1.75 0.367 1.033 0.667 1.733 0.9 2.1 0.367 0.6 1.1 1.5 2.2 2.7z"
       clip-rule="evenodd"
       fill="#fff"
       fill-rule="evenodd"
       id="path5" /></symbol><symbol
     id="o"
     viewBox="0 -20.05 40.75 20.067"><path
       d="m23.75-19.05c-1.433-0.267-3.15-0.5-5.15-0.7-1.733-0.2-2.85-0.3-3.35-0.3-0.367 0-1.05 0.167-2.05 0.5l-1.4 0.5-6.15-0.3-5.65 5.2c0.733 1.1 1.15 1.933 1.25 2.5l0.4 6c1 0.733 2.367 1.283 4.1 1.65 1.1 0.233 2.35 0.65 3.75 1.25 0.767 0.333 1.767 0.8 3 1.4 1.233 0.5 4.117 0.95 8.65 1.35 0.7 0.067 1.783-0.067 3.25-0.4 0.833-0.167 2.217-0.483 4.15-0.95 3.034-0.733 4.9-1.1 5.6-1.1l6.6-1.8c-1.567-2.2-2.7-3.717-3.4-4.55-0.434-0.5-0.883-1.284-1.35-2.35-0.233-0.6-0.617-1.55-1.15-2.85-0.4-0.967-1.017-1.883-1.85-2.75-0.833-0.9-1.5-1.35-2-1.35-1.2 0-3.617-0.317-7.25-0.95z"
       clip-rule="evenodd"
       fill="#545454"
       fill-rule="evenodd"
       id="path8" /></symbol><symbol
     id="p"
     viewBox="0 -13.75 8.328 13.75"><path
       d="m8.05-2.85l0.2-0.4c0.167-0.867 0.067-1.667-0.3-2.4s-0.667-1.7-0.9-2.9l-0.4-1.75c-0.1-0.5-0.15-0.967-0.15-1.4l-0.2-0.75c-0.2-0.533-0.433-0.966-0.7-1.3l-5.6 5.2c0.733 1.1 1.15 1.933 1.25 2.5 0.1 0.533 0.183 1.817 0.25 3.85l0.15 2.15 0.05 0.05c1.167-0.467 2.083-0.883 2.75-1.25 1-0.567 2.2-1.1 3.6-1.6z"
       clip-rule="evenodd"
       fill="#fff"
       fill-rule="evenodd"
       id="path11" /></symbol><symbol
     id="q"
     viewBox="0 -8.5 39.05 8.517"><path
       d="m32.45-2.45c0.233 0 1.4-0.3 3.5-0.9 1.066-0.3 2.1-0.6 3.1-0.9-0.3-0.1-1.3-0.1-3 0-2 0.1-3.216 0.15-3.65 0.15-0.733-0.033-1.017-0.117-0.85-0.25 0.067-0.067 0.217-0.117 0.45-0.15-0.833 0.067-1.683 0.1-2.55 0.1-0.534 0-0.934-0.05-1.2-0.15-0.3-0.167-0.567-0.3-0.8-0.4-1.2-0.4-1.934-0.633-2.2-0.7-1.367-0.333-2.8-0.517-4.3-0.55h-5.15c-0.767-0.2-1.55-0.4-2.35-0.6-1.6-0.467-2.45-0.817-2.55-1.05-0.2-0.367-1.633-0.583-4.3-0.65-1.1 0.3-2.383 0.85-3.85 1.65-0.667 0.367-1.583 0.783-2.75 1.25 0.833 0.667 2.183 1.2 4.05 1.6 1.1 0.233 2.35 0.65 3.75 1.25 0.767 0.333 1.767 0.8 3 1.4 1.233 0.5 4.117 0.95 8.65 1.35 0.7 0.067 1.783-0.067 3.25-0.4 0.833-0.167 2.216-0.483 4.15-0.95 3.033-0.733 4.9-1.1 5.6-1.1z"
       clip-rule="evenodd"
       fill="#fff"
       fill-rule="evenodd"
       id="path14" /></symbol><symbol
     id="r"
     viewBox="0 -14.15 13.7 14.15"><path
       d="m10.6-2.3c1.066-0.3 2.1-0.6 3.1-0.9l-2.6-3.55c-0.933-0.667-1.433-1.05-1.5-1.15-0.467-0.967-0.9-1.833-1.3-2.6-0.8-1.5-1.533-2.5-2.2-3l-0.9-0.65c-0.8 0-1.5 0.033-2.1 0.1-0.233 0-0.667 0.133-1.3 0.4-0.767 0.3-1.367 0.5-1.8 0.6 1.133 0.933 1.767 1.517 1.9 1.75 0.3 0.466 0.45 1.633 0.45 3.5 0 0.7-0.033 1.283-0.1 1.75-0.1 0.533-0.183 1.067-0.25 1.6-0.1 0.9-0.7 2.383-1.8 4.45l1.3-0.3c3.033-0.733 4.9-1.1 5.6-1.1 0.233 0 1.4-0.3 3.5-0.9z"
       clip-rule="evenodd"
       fill-rule="evenodd"
       id="path17" /></symbol><symbol
     id="s"
     viewBox="0 -20.05 40.75 20.067"><radialGradient
       id="k"
       cx="-3365.2"
       cy="-7913.5"
       r="16.117"
       gradientTransform="matrix(.7221 -.6918 -.6918 -.7221 -3025.8 -8046.9)"
       gradientUnits="userSpaceOnUse"><stop
         stop-color="#fff"
         stop-opacity="0"
         offset=".0039"
         id="stop21" /><stop
         stop-color="#fff"
         stop-opacity=".949"
         offset="1"
         id="stop23" /></radialGradient><path
       d="m23.75-19.05c-1.433-0.267-3.15-0.5-5.15-0.7-1.733-0.2-2.85-0.3-3.35-0.3-0.367 0-1.05 0.167-2.05 0.5l-1.4 0.5-6.15-0.3-5.65 5.2c0.733 1.1 1.15 1.933 1.25 2.5l0.4 6c1 0.733 2.367 1.283 4.1 1.65 1.1 0.233 2.35 0.65 3.75 1.25 0.767 0.333 1.767 0.8 3 1.4 1.233 0.5 4.117 0.95 8.65 1.35 0.7 0.067 1.783-0.067 3.25-0.4 0.833-0.167 2.217-0.483 4.15-0.95 3.034-0.733 4.9-1.1 5.6-1.1l6.6-1.8c-1.567-2.2-2.7-3.717-3.4-4.55-0.434-0.5-0.883-1.284-1.35-2.35-0.233-0.6-0.617-1.55-1.15-2.85-0.4-0.967-1.017-1.883-1.85-2.75-0.833-0.9-1.5-1.35-2-1.35-1.2 0-3.617-0.317-7.25-0.95z"
       clip-rule="evenodd"
       fill="url(#k)"
       fill-rule="evenodd"
       id="path25" /></symbol><symbol
     id="t"
     viewBox="0 -6.35 32.25 6.361"><path
       d="m31.25-2.75c-0.133-0.2-0.217-0.533-0.25-1v-0.65c-1.2 0-3.617-0.317-7.25-0.95-1.433-0.267-3.15-0.5-5.15-0.7-1.733-0.2-2.85-0.3-3.35-0.3-0.367 0-1.05 0.167-2.05 0.5l-1.4 0.5-6.15-0.3-5.65 5.2 0.1 0.15c2.066-0.367 3.3-0.55 3.7-0.55 0.8 0 2.3 0.117 4.5 0.35 1.767 0.5 3.5 0.633 5.2 0.4 2.333-0.367 4.95-0.55 7.85-0.55 1 0 2.433 0.117 4.3 0.35 0.767 0.033 1.65-0.133 2.65-0.5 1.133-0.4 1.75-0.6 1.85-0.6 0.6-0.067 1.3-0.1 2.1-0.1-0.5-0.533-0.833-0.95-1-1.25z"
       clip-rule="evenodd"
       fill-rule="evenodd"
       id="path28" /></symbol><use
     transform="matrix(1.08,0,0,-1.9886227,0.17372881,0.77624478)"
     y="-20.049999"
     width="40.75"
     height="20.066999"
     xlink:href="#o"
     id="use30"
     style="opacity:0.39059999;enable-background:new"
     x="0" /><radialGradient
     id="l"
     cx="22.6"
     cy="7.1499"
     r="16.05"
     gradientTransform="matrix(1.08,0,0,-1.4264685,0.17412554,25.192112)"
     gradientUnits="userSpaceOnUse"><stop
       stop-color="#59ECFF"
       offset="0"
       id="stop33" /><stop
       stop-color="#fff"
       stop-opacity=".4"
       offset="1"
       id="stop35" /></radialGradient><path
     d="m 25.822729,38.659507 c -1.548,0.530299 -3.402,0.99247 -5.562,1.392035 -1.872,0.397725 -3.078,0.594746 -3.618,0.594746 -0.396,0 -1.134,-0.331437 -2.214,-0.994311 l -1.512,-0.99247 -6.6420002,0.596586 -6.10099999,-10.340837 c 0.792,-2.187485 1.24199999,-3.844671 1.34999999,-4.971557 l 0.432,-11.929894 c 1.08,-1.458324 2.556,-2.5520664 4.428,-3.2812271 1.188,-0.4640127 2.538,-1.2926056 4.0500002,-2.485779 0.828,-0.6628746 1.908,-1.5908973 3.24,-2.7840721 1.332,-0.9943113 4.446,-1.8891916 9.341,-2.6846407 0.757,-0.13257467 1.927,0.13257466 3.511,0.7954491 0.899,0.3332786 2.394,0.9611677 4.481,1.8891916 3.275,1.458324 5.292,2.1874861 6.049,2.1874861 l 7.127,3.57952 c -1.691,4.3749701 -2.916,7.3910471 -3.672,9.0463911 -0.468,0.994312 -0.954,2.553907 -1.458,4.673264 -0.252,1.193174 -0.665,3.084206 -1.242,5.667574 -0.432,1.922336 -1.098,3.74524 -1.998,5.468712 -0.899,1.789761 -1.619,2.684641 -2.159,2.684641 -1.297,-0.0019 -3.907,0.627889 -7.831,1.889192 z"
     id="path37"
     style="clip-rule:evenodd;fill:url(#l);fill-rule:evenodd"
     inkscape:connector-curvature="0" /><radialGradient
     id="m"
     cx="9.2529"
     cy="8.7036"
     r="15.364"
     gradientTransform="matrix(1.0403,-0.53379788,-0.1942,-1.2830298,4.3869288,28.615121)"
     gradientUnits="userSpaceOnUse"><stop
       stop-color="#FFAF8C"
       offset="0"
       id="stop40" /><stop
       stop-color="#fff"
       stop-opacity="0"
       offset="1"
       id="stop42" /></radialGradient><path
     d="m 25.822729,38.659507 c -1.548,0.530299 -3.402,0.99247 -5.562,1.392035 -1.872,0.397725 -3.078,0.594746 -3.618,0.594746 -0.396,0 -1.134,-0.331437 -2.214,-0.994311 l -1.512,-0.99247 -6.6420002,0.596586 -6.10099999,-10.340837 c 0.792,-2.187485 1.24199999,-3.844671 1.34999999,-4.971557 l 0.432,-11.929894 c 1.08,-1.458324 2.556,-2.5520664 4.428,-3.2812271 1.188,-0.4640127 2.538,-1.2926056 4.0500002,-2.485779 0.828,-0.6628746 1.908,-1.5908973 3.24,-2.7840721 1.332,-0.9943113 4.446,-1.8891916 9.341,-2.6846407 0.757,-0.13257467 1.927,0.13257466 3.511,0.7954491 0.899,0.3332786 2.394,0.9611677 4.481,1.8891916 3.275,1.458324 5.292,2.1874861 6.049,2.1874861 l 7.127,3.57952 c -1.691,4.3749701 -2.916,7.3910471 -3.672,9.0463911 -0.468,0.994312 -0.954,2.553907 -1.458,4.673264 -0.252,1.193174 -0.665,3.084206 -1.242,5.667574 -0.432,1.922336 -1.098,3.74524 -1.998,5.468712 -0.899,1.789761 -1.619,2.684641 -2.159,2.684641 -1.297,-0.0019 -3.907,0.627889 -7.831,1.889192 z"
     id="path44"
     style="clip-rule:evenodd;fill:url(#m);fill-rule:evenodd"
     inkscape:connector-curvature="0" /><use
     transform="matrix(1.08,0,0,-1.9886227,0.17372881,28.027741)"
     y="-6.3499999"
     width="32.25"
     height="6.3610001"
     xlink:href="#t"
     id="use46"
     style="opacity:0.12890003;enable-background:new"
     x="0" /><use
     transform="matrix(1.08,0,0,-1.9886227,0.17372881,0.77624478)"
     y="-20.049999"
     width="40.75"
     height="20.066999"
     xlink:href="#s"
     id="use48"
     style="opacity:0.55080004;enable-background:new"
     x="0" /><use
     transform="matrix(1.08,0,0,-1.9886227,29.423729,2.8016943)"
     y="-14.15"
     width="13.7"
     height="14.15"
     xlink:href="#r"
     id="use50"
     style="opacity:0.03130002;enable-background:new"
     x="0" /><use
     transform="matrix(1.08,0,0,-1.9886227,2.0736288,0.77624478)"
     y="-8.5"
     width="39.049999"
     height="8.5170002"
     xlink:href="#q"
     id="use52"
     style="opacity:0.44140003;enable-background:new"
     x="0" /><use
     transform="matrix(1.08,0,0,-1.9886227,0.17372881,11.916215)"
     y="-13.75"
     width="8.3280001"
     height="13.75"
     xlink:href="#p"
     id="use54"
     style="opacity:0.53130002;enable-background:new"
     x="0" /><path
     d="m 3.1977288,23.742994 1.674,1.193176 1.512,0.101269 c 1.512,-1.193172 2.268,-2.353201 2.268,-3.48193 0,-0.729161 -0.055,-1.491466 -0.162,-2.286916 l -0.216,-0.99247 -2.322,-2.485779 c -0.18,-0.197021 -0.54,-0.397723 -1.08,-0.596586 -0.612,-0.197021 -1.008,-0.362738 -1.188,-0.497155 -0.288,-0.266991 -0.648,-0.79729 -1.08,-1.590898 l -0.594,-1.191333 c 1.26,0.928025 2.25,1.754776 2.97,2.485779 1.08,1.125044 2.375,2.187484 3.887,3.181796 l 0.216,0.79729 c 0.18,1.723473 0.072,3.314371 -0.324,4.772694 -0.396,1.458324 -0.72,3.380659 -0.972,5.767006 l -0.432,3.480089 c -0.108,0.994312 -0.162,1.922335 -0.162,2.784073 l -0.216,1.493307 c -0.216,1.0606 -0.468,1.922335 -0.756,2.585211 L 0.17372881,28.915259 c 1.18799999,1.856049 2.08799999,3.082365 2.69999999,3.678954 0.288,0.265149 0.666,0.762303 1.134,1.491466 0.433,0.596587 0.756,0.961167 0.973,1.093742 0.755,0.399565 1.188,0.333278 1.295,-0.197021 0.432,-1.126887 0.648,-2.121197 0.648,-2.982934 l -0.054,-3.082365 -2.106,-2.489461 -1.566,-2.684642 z"
     id="path56"
     inkscape:connector-curvature="0"
     style="clip-rule:evenodd;fill:#ffffff;fill-rule:evenodd" /><path
     d="m 39.052729,7.8358557 2.053,0.8948803 c -0.181,-0.5302987 -1.099,-1.3570511 -2.755,-2.4857778 1.368,0.5947455 3.313,1.5890568 5.832,2.9829341 -0.324,0.19702 -1.403,0.19702 -3.24,0 -2.159,-0.1988634 -3.474,-0.2982944 -3.942,-0.2982944 -0.792,0.06445 -1.098,0.2320057 -0.917,0.4971565 0.071,0.1325801 0.234,0.2320056 0.486,0.2982929 -0.901,-0.1325803 -1.818,-0.198862 -2.754,-0.198862 -0.577,0 -1.009,0.1012756 -1.296,0.2982933 -0.324,0.3332784 -0.612,0.5965864 -0.864,0.7972894 -1.296,0.79545 -2.088,1.259463 -2.376,1.392037 -1.477,0.661033 -3.023,1.027455 -4.644,1.093743 l -5.563,0 c -0.828,0.397723 -1.674,0.795449 -2.538,1.191332 -1.728,0.929865 -2.646,1.625883 -2.753,2.089894 -0.216,0.729162 -1.764,1.160029 -4.6450002,1.292605 l -0.27,-0.10128 2.4300002,-0.79545 1.62,-1.093742 1.404,-1.590899 c 0.359,-0.331437 1.458,-0.959325 3.293,-1.889191 -0.359,-0.99431 -0.72,-1.655344 -1.08,-1.988622 -1.295,-1.5890579 -1.998,-2.4176495 -2.105,-2.4857789 l 0.486,0.2982931 c 1.224,0.8617366 2.034,1.5908986 2.43,2.1874858 0.396,0.530298 0.846,0.894879 1.35,1.095583 0.252,0.13074 0.522,0.197021 0.81,0.197021 0.324,0.198862 1.368,0.298294 3.131,0.298294 0.577,0 1.549,0.06629 2.916,0.198861 1.225,0 2.232,-0.198861 3.024,-0.596585 0.863,-0.464014 1.836,-1.193174 2.916,-2.1874851 0.181,-0.1325804 0.125,-0.5965875 -0.162,-1.3938774 -0.324,-0.7291621 -0.612,-1.1600296 -0.864,-1.2926057 -1.728,-0.9924694 -2.988,-1.854206 -3.78,-2.583368 -0.792,-0.795448 -1.386,-1.3920354 -1.781,-1.7897593 -0.648,-0.6628755 -1.188,-0.9943126 -1.62,-0.9943126 l -1.025,0 1.295,-0.1988623 c 1.117,0.1325747 2.322,0.7623058 3.618,1.8891919 0.936,0.8617366 1.891,1.7897606 2.862,2.784072 0.503,0.4640113 0.9,0.7623057 1.188,0.8930383 0.54,0.1325802 1.404,0.5303 2.593,1.1931748 l 1.943,0.3995645 c 0.072,0 0.594,-0.068131 1.566,-0.1988619 0.972,-0.1325803 1.547,-0.167559 1.728,-0.099436 z"
     id="path58"
     inkscape:connector-curvature="0"
     style="clip-rule:evenodd;fill:#ffffff;fill-rule:evenodd" /><use
     transform="matrix(1.08,0,0,-1.9886227,12.973729,9.2463054)"
     y="-15.8"
     width="28.950001"
     height="15.8"
     xlink:href="#n"
     id="use60"
     style="opacity:0.42970001;enable-background:new"
     x="0" /><path
     d="m 17.021729,32.594208 c -0.144,0.464011 -0.324,1.259461 -0.54,2.386347 -0.108,0.596587 -0.288,1.160029 -0.54,1.69033 -0.108,0.265149 -0.252,0.661033 -0.432,1.191331 -0.181,0.399565 -0.342,0.596587 -0.486,0.596587 l -1.512,0 1.35,-1.292605 c 0.36,-1.259461 0.63,-2.021765 0.81,-2.286916 0.432,-1.390196 0.72,-2.253773 0.864,-2.583368 l 1.512,-4.076677 -1.026,4.374971 z"
     id="path62"
     inkscape:connector-curvature="0"
     style="clip-rule:evenodd;fill:#ffffff;fill-rule:evenodd" /></svg>