<?xml version="1.0" encoding="UTF-8" standalone="no"?>
<svg
   xmlns:dc="http://purl.org/dc/elements/1.1/"
   xmlns:cc="http://creativecommons.org/ns#"
   xmlns:rdf="http://www.w3.org/1999/02/22-rdf-syntax-ns#"
   xmlns:svg="http://www.w3.org/2000/svg"
   xmlns="http://www.w3.org/2000/svg"
   xmlns:xlink="http://www.w3.org/1999/xlink"
   xmlns:sodipodi="http://sodipodi.sourceforge.net/DTD/sodipodi-0.dtd"
   xmlns:inkscape="http://www.inkscape.org/namespaces/inkscape"
   enable-background="new 0 0 40.25 34.4"
   version="1.1"
   viewBox="0 0 40.25 34.4"
   xml:space="preserve"
   id="svg2"
   inkscape:version="0.91 r13725"
   sodipodi:docname="shiny2.svg"><metadata
     id="metadata117"><rdf:RDF><cc:Work
         rdf:about=""><dc:format>image/svg+xml</dc:format><dc:type
           rdf:resource="http://purl.org/dc/dcmitype/StillImage" /></cc:Work></rdf:RDF></metadata><defs
     id="defs115" /><sodipodi:namedview
     pagecolor="#ffffff"
     bordercolor="#666666"
     borderopacity="1"
     objecttolerance="10"
     gridtolerance="10"
     guidetolerance="10"
     inkscape:pageopacity="0"
     inkscape:pageshadow="2"
     inkscape:window-width="640"
     inkscape:window-height="480"
     id="namedview113"
     showgrid="false"
     inkscape:zoom="6.6086957"
     inkscape:cx="20.125"
     inkscape:cy="17.200001"
     inkscape:window-x="0"
     inkscape:window-y="0"
     inkscape:window-maximized="0"
     inkscape:current-layer="svg2" /><symbol
     id="ab"
     viewBox="0 -3.15 9.3 3.15"><path
       d="m9.3-1.3l-9.3-1.85c0.3 0.3 1.1 0.6 2.4 0.9 1.733 0.467 3.9 1.217 6.5 2.25l0.25-0.95 0.15-0.35z"
       clip-rule="evenodd"
       fill="#FF8F8F"
       fill-rule="evenodd"
       id="path5" /></symbol><symbol
     id="ac"
     viewBox="0 -10.05 4.237 10.056"><path
       d="m4.2-0.3c0.133-0.434-0.1-1.267-0.7-2.5l-3.5-7.25 3.85 10.05c0.167 0.033 0.283-0.067 0.35-0.3z"
       clip-rule="evenodd"
       fill="#FF8F8F"
       fill-rule="evenodd"
       id="path8" /></symbol><symbol
     id="ad"
     viewBox="0 -7.75 6.45 7.75"><polygon
       points="6.45 -7.75 6.2 -7.65 3.1 -3.8 2.95 -3.7 0 0 5.75 -1.7"
       clip-rule="evenodd"
       fill-rule="evenodd"
       id="polygon11" /></symbol><symbol
     id="ae"
     viewBox="0 -22.15 19.9 22.15"><linearGradient
       id="t"
       x1="-3324"
       x2="-3298.2"
       y1="-9351.3"
       y2="-9351.3"
       gradientTransform="matrix(.6312 -.7756 .7756 .6312 9353.9 3323.8)"
       gradientUnits="userSpaceOnUse"><stop
         stop-color="#FF001D"
         offset="0"
         id="stop15" /><stop
         stop-color="#80000E"
         offset="1"
         id="stop17" /></linearGradient><polygon
       points="11.8 -1.45 17.45 -5.05 17.5 -5.1 19.9 -11.35 19.55 -20 14 -22.15 7.4 -19.75 4.3 -15.9 4.15 -15.8 1.05 -11.9 0 -5 3.3 0"
       clip-rule="evenodd"
       fill="url(#t)"
       fill-rule="evenodd"
       id="polygon19" /></symbol><symbol
     id="af"
     viewBox="0 -22.1 19.5 22.1"><linearGradient
       id="u"
       x1="1189"
       x2="1205.3"
       y1="1024.4"
       y2="1024.4"
       gradientTransform="matrix(.9907 .1361 -.1361 .9907 -1036.8 -1188.7)"
       gradientUnits="userSpaceOnUse"><stop
         stop-color="#FF031F"
         offset="0"
         id="stop23" /><stop
         stop-color="#80000E"
         offset="1"
         id="stop25" /></linearGradient><polygon
       points="6.9 -13.8 0 -5 3.25 0 3.55 -0.05 7.2 -13.3 19.5 -19.95 19.5 -20 14.2 -22.1"
       clip-rule="evenodd"
       fill="url(#u)"
       fill-rule="evenodd"
       id="polygon27" /></symbol><symbol
     id="ag"
     viewBox="0 -4.8 4.8 4.8"><polygon
       points="2.4 -3.3 0 -4.8 1.5 -2.4 0 0 2.4 -1.5 4.8 0 3.3 -2.4 4.8 -4.8"
       clip-rule="evenodd"
       fill="#FFE0E3"
       fill-rule="evenodd"
       id="polygon30" /></symbol><symbol
     id="ah"
     viewBox="0 -14.9 7.3 14.9"><polygon
       points="0 0 1.8 -7.15 7.3 -14.9 1.55 -8 1.15 -13.85"
       clip-rule="evenodd"
       fill="#FF8F8F"
       fill-rule="evenodd"
       id="polygon33" /></symbol><symbol
     id="ai"
     viewBox="0 -12.95 14.7 12.95"><polygon
       points="0 0 8.5 -1.45 14.2 -5.1 8.7 -2.1 7.4 -3 8.8 -9.4 14.7 -12.95 8.1 -9.75 6.65 -3.05"
       clip-rule="evenodd"
       fill="#FF8F8F"
       fill-rule="evenodd"
       id="polygon36" /></symbol><symbol
     id="aj"
     viewBox="0 -11.9 5.7 11.9"><linearGradient
       id="v"
       x1="7.1104"
       x2=".4344"
       y1="-5.3364"
       y2="-6.2546"
       gradientUnits="userSpaceOnUse"><stop
         stop-color="#4A0109"
         offset="0"
         id="stop40" /><stop
         stop-color="#80000E"
         offset="1"
         id="stop42" /></linearGradient><polygon
       points="0 -11.9 4.25 -1.65 5.3 0 5.7 -1.15 5.4 -9.75"
       clip-rule="evenodd"
       fill="url(#v)"
       fill-rule="evenodd"
       id="polygon44" /></symbol><symbol
     id="ak"
     viewBox="0 -4.85 12.75 4.85"><linearGradient
       id="w"
       x1="1191.4"
       x2="1198.2"
       y1="1034.6"
       y2="1034.6"
       gradientTransform="matrix(.9907 .1363 -.1363 .9907 -1037.5 -1189.7)"
       gradientUnits="userSpaceOnUse"><stop
         stop-color="#FF031F"
         offset="0"
         id="stop48" /><stop
         stop-color="#80000E"
         offset="1"
         id="stop50" /></linearGradient><polygon
       points="0 -4.85 3.2 0 11.7 -1.45 12.75 -2.1 10.9 -2.75"
       clip-rule="evenodd"
       fill="url(#w)"
       fill-rule="evenodd"
       id="polygon52" /></symbol><symbol
     id="al"
     viewBox="0 -10.05 10.65 10.05"><linearGradient
       id="x"
       x1="1192.8"
       x2="1201.9"
       y1="1033.1"
       y2="1033.1"
       gradientTransform="matrix(.9906 .1365 -.1365 .9906 -1039.6 -1192.4)"
       gradientUnits="userSpaceOnUse"><stop
         stop-color="#FF031F"
         offset="0"
         id="stop56" /><stop
         stop-color="#80000E"
         offset="1"
         id="stop58" /></linearGradient><polygon
       points="0 -2.05 10.65 0 6.6 -10.05 6.35 -9.95 3.25 -6.1 3.1 -6 0 -2.1"
       clip-rule="evenodd"
       fill="url(#x)"
       fill-rule="evenodd"
       id="polygon60" /></symbol><g
     id="g62"
     transform="matrix(1.6787234,0,0,1.2723434,-13.444892,-9.813547)"
     style="clip-rule:evenodd;fill-rule:evenodd"><linearGradient
       id="y"
       x1="-24.056"
       x2="-18.549999"
       y1="28.415001"
       y2="28.415001"
       gradientTransform="matrix(0.7335,-0.8883,0.8883,0.7335,1.7493,-6.7996)"
       gradientUnits="userSpaceOnUse"><stop
         stop-color="#FF031F"
         offset="0"
         id="stop65" /><stop
         stop-color="#B20115"
         offset="1"
         id="stop67" /></linearGradient><polygon
       points="31.183,31.791 24.963,34.269 10.102,30.351 8.777,14.397 12.463,8.809 25.653,17.218 "
       id="polygon69"
       style="fill:url(#y)" /><linearGradient
       id="z"
       x1="-23.844999"
       x2="-18.34"
       y1="33.556999"
       y2="33.556999"
       gradientTransform="matrix(0.7322,-0.8893,0.8893,0.7322,1.7493,-6.7992)"
       gradientUnits="userSpaceOnUse"><stop
         stop-color="#FF031F"
         offset="0"
         id="stop72" /><stop
         stop-color="#8F0111"
         offset="1"
         id="stop74" /></linearGradient><polygon
       points="31.183,31.791 24.963,34.269 10.102,30.351 25.653,17.277 "
       id="polygon76"
       style="fill:url(#z)" /></g><polygon
     points="31.586,21.885 31.183,31.849 24.789,34.325 17.186,31.561 13.615,27.126 13.442,27.01 9.871,22.518 8.662,14.569 12.463,8.809 22.255,10.479 28.764,14.626 28.821,14.685 "
     id="polygon78"
     transform="matrix(1.6787234,0,0,1.2723434,-13.444892,-9.813547)"
     style="clip-rule:evenodd;fill:#940011;fill-rule:evenodd" /><polygon
     points="28.245,19.581 31.183,31.561 31.183,31.849 24.789,34.325 17.186,31.561 13.615,27.126 13.442,27.01 9.871,22.518 8.662,14.569 12.463,8.809 13.615,8.982 23.694,13.936 "
     id="polygon80"
     transform="matrix(1.6787234,0,0,1.2723434,-13.444892,-9.813547)"
     style="clip-rule:evenodd;fill:#400007;fill-rule:evenodd" /><use
     transform="matrix(1.9338894,0,0,-1.4657396,1.3275386,1.4468196)"
     y="-22.1"
     width="19.5"
     height="22.1"
     xlink:href="#af"
     id="use82"
     style="opacity:0.44140003;enable-background:new"
     x="0" /><use
     transform="matrix(1.9338894,0,0,-1.4657396,1.1603377,1.4468196)"
     y="-22.15"
     width="19.9"
     height="22.15"
     xlink:href="#ae"
     id="use84"
     style="opacity:0.51950001;enable-background:new"
     x="0" /><use
     transform="matrix(1.9338894,0,0,-1.4657396,3.594151,19.068649)"
     y="-7.75"
     width="6.4499998"
     height="7.75"
     xlink:href="#ad"
     id="use86"
     style="opacity:0.60939995;enable-background:new"
     x="0" /><use
     transform="matrix(1.9338894,0,0,-1.4657396,3.1743022,15.760556)"
     y="-10.05"
     width="10.65"
     height="10.05"
     xlink:href="#al"
     id="use88"
     style="opacity:0.78910002;enable-background:new"
     x="0" /><use
     transform="matrix(1.9338894,0,0,-1.4657396,1.4119784,1.4468196)"
     y="-4.8499999"
     width="12.75"
     height="4.8499999"
     xlink:href="#ak"
     id="use90"
     style="opacity:0.57810005;enable-background:new"
     x="0" /><use
     transform="matrix(1.9338894,0,0,-1.4657396,28.607131,16.33311)"
     y="-11.9"
     width="5.6999998"
     height="11.9"
     xlink:href="#aj"
     id="use92"
     style="opacity:0.82810005;enable-background:new"
     x="0" /><linearGradient
     id="aa"
     x1="14.402"
     x2="19.525"
     y1="23.4"
     y2="23.4"
     gradientTransform="matrix(1.1413,-0.1567,0.1567,1.1413,1.7498,-6.7997)"
     gradientUnits="userSpaceOnUse"><stop
       stop-color="#FF031F"
       offset="0"
       id="stop95" /><stop
       stop-color="#B20115"
       offset="1"
       id="stop97" /></linearGradient><polygon
     points="31.586,21.885 31.586,21.999 29.397,23.728 22.14,20.156 22.14,20.098 20.124,12.323 22.255,10.479 28.764,14.626 28.821,14.685 "
     id="polygon99"
     style="clip-rule:evenodd;fill:url(#aa);fill-rule:evenodd"
     transform="matrix(1.6787234,0,0,1.2723434,-13.444892,-9.813547)" /><use
     transform="matrix(1.9338894,0,0,-1.4657396,7.5391511,1.4468196)"
     y="-12.95"
     width="14.7"
     height="12.95"
     xlink:href="#ai"
     id="use101"
     style="opacity:0.73049999;enable-background:new"
     x="0" /><use
     transform="matrix(1.9338894,0,0,-1.4657396,1.4119784,8.4445813)"
     y="-14.9"
     width="7.3000002"
     height="14.9"
     xlink:href="#ah"
     id="use103"
     style="opacity:0.73049999;enable-background:new"
     x="0" /><use
     transform="matrix(1.9338894,0,0,-1.4657396,17.275748,1.5741812)"
     y="-4.8000002"
     width="4.8000002"
     height="4.8000002"
     xlink:href="#ag"
     id="use105"
     style="opacity:0.51169996;enable-background:new"
     x="0" /><polygon
     points="20.642,11.632 19.951,10.595 21.045,11.229 22.14,10.595 21.448,11.632 22.14,12.726 21.045,12.092 19.951,12.726 "
     id="polygon107"
     transform="matrix(1.6787234,0,0,1.2723434,-13.444892,-9.813547)"
     style="clip-rule:evenodd;fill:#ffffff;fill-rule:evenodd" /><use
     transform="matrix(1.9338894,0,0,-1.4657396,16.016704,15.760556)"
     y="-10.05"
     width="4.237"
     height="10.056"
     xlink:href="#ac"
     id="use109"
     style="opacity:0.5;enable-background:new"
     x="0" /><use
     transform="matrix(1.9338894,0,0,-1.4657396,5.1889382,13.788423)"
     y="-3.1500001"
     width="9.3000002"
     height="3.1500001"
     xlink:href="#ab"
     id="use111"
     style="opacity:0.5;enable-background:new"
     x="0" /></svg>