<?xml version="1.0" encoding="UTF-8"?>
<svg viewBox="0 0 195 245" xmlns="http://www.w3.org/2000/svg">
 <path d="m20.434 240.88c-3.7958-30.828-7.4225-64.539-11.843-96.616 5.1726-2.1568 3.6101-2.0968 6.3277-3.1948-2.5964-1.1882-3.3345-0.93298-7.1852-2.2775l-6.0814-48.168s-21.335-92.048 89.33-90.246c106.99 1.7426 82.458 91.162 82.458 91.162l-132.85 153.46-20.156-4.123z" fill="#3f3f3f"/>
 <path d="m39.474 169.42c-4.861 1.696-10.998 0.20203-18.302-4.211l10.608 8.746 7.6933-4.535zm-12.315-97.736l-10.155-4.5917 3.3555 11.568 6.7992-6.9759zm5.2098-10.773c-5.2392 0.2816-10.478-3.999-15.718-7.1525l10.949 12.451 4.7683-5.2981zm-18.641-5.1866l13.464 8.011 7.0442-4.113c-6.836 1.5255-13.672-2.095-20.508-3.898zm-10.325 99.331l20.039 4.849 11.48-5.827-12.33-0.296-12.972-1.988-6.2179 3.262z" fill="#d8d8d8"/>
 <path d="m40.59 245l-8.8861-71.04 7.9067-4.5386c-6.6805-3.6638-9.8451-5.5622-9.9097-12.847l-1.106-7.4704 11.472-5.8023-12.227-0.26984-6.0318-48.289c-0.69471-6.2623-1.1354-9.34-1.2948-16.094 1.7607-2.2555 4.2944-4.5412 6.5989-6.9224 0.17472-1.6972 0.33023-3.9259 0.49741-5.5871-0.74297-3.0372 2.953-4.8935 4.7641-5.1702 1.2052-3.1818 1.1887-2.6066-0.097954-8.0862 2.7472-1.6694 4.487-2.6994 7.0384-3.8875-3.5416-4.7079-3.0987-5.9008-5.9237-15.439 16.802-24.962 52.386-28.545 77.747-29.06 95.533-1.9381 82.458 91.162 82.458 91.162l-22.447 148.88-130.56 0.4582z" fill="#7f7f7f"/>
</svg>
